<svg width="307" height="35" viewBox="0 0 307 35" fill="none" xmlns="http://www.w3.org/2000/svg">
<path d="M12.9601 31.2396C11.1201 31.2396 8.1201 30.1596 6.1601 29.2796L6.0001 29.0396L5.2401 28.6796C5.0801 28.5596 4.9201 28.5596 4.5601 28.1596L4.2001 27.7596C3.0401 26.5996 2.4401 26.2396 2.2001 25.5196C1.8001 25.3196 1.3601 24.8796 0.960098 23.6796L0.720098 21.7596V20.3596C0.600098 19.9196 0.560098 19.7996 0.560098 19.6796L0.680098 19.1196C0.680098 18.9596 0.640098 18.6796 0.520098 18.1196L0.240098 16.9596C0.0800978 16.1596 9.77516e-05 15.3596 0.0400978 14.4796C0.0800978 13.6396 0.240098 12.7596 0.480098 11.8396L0.800098 10.9996L1.0801 9.63965C1.0801 9.27965 1.3601 8.31965 1.5201 7.91965L1.6801 7.71965C1.7601 7.31965 2.0001 6.91965 2.1601 6.67965C2.4401 5.27965 3.1601 3.95965 4.2001 3.23965C4.5601 2.87965 5.2401 2.15965 6.8401 2.15965C7.2001 2.15965 7.5201 2.23965 7.7201 2.31965C7.8801 2.31965 8.9201 1.83965 9.8401 1.83965L10.7201 2.27965C10.9201 2.27965 11.2401 2.19965 11.4001 2.19965L12.9201 2.75965C13.2001 2.75965 13.4001 2.75965 13.5601 2.83965L14.6801 3.63965C15.0001 3.83965 15.0801 3.87965 15.1601 4.11965L15.8401 4.83965L16.1601 5.39965L17.0401 6.03965L17.2401 6.87965L18.0001 8.03965L18.1601 9.07965L18.3601 9.35965L18.4801 10.2396L18.7601 10.4796V11.1596L18.8401 12.4796L19.0401 14.3596C19.0401 14.5596 18.8401 15.3196 18.8401 15.3196C19.0001 15.9996 19.0401 16.5996 19.0001 17.1596C18.9601 17.7196 18.8401 18.1996 18.6801 18.6796C18.6001 18.8796 18.7201 19.3196 18.7201 19.5596V20.0396C18.7201 20.0396 18.6401 20.9196 18.4401 21.3196L18.2001 21.7596L17.6801 24.4796L17.5201 25.8796L17.2801 26.1196V26.9196L16.6801 27.9196C16.4801 28.1196 16.2801 28.5196 16.2401 28.6796L15.6001 29.9596L15.0401 30.2396C14.9201 30.3996 14.6401 30.6796 14.2801 30.8396C13.8001 31.0396 13.6401 31.1196 12.9601 31.2396ZM10.7201 29.1996H13.4401L13.6001 29.0396C13.9201 28.6396 14.3601 28.1596 14.8401 27.7196V27.4796C15.2401 26.2796 15.8001 25.3196 15.7601 25.3196C16.0401 24.8796 16.1201 24.6796 16.5201 24.0796C16.4801 23.6396 16.4801 21.5996 16.4801 21.3996L17.2401 19.4396C17.3601 18.6396 17.4401 17.7596 17.4401 16.8396C17.4401 15.7996 17.4001 14.6796 17.2401 13.4396C17.1601 12.8396 17.0401 12.1596 17.0401 11.5596V10.8796L16.6401 10.2396L16.3201 8.87965L16.2401 8.35965C16.2001 8.07965 16.0401 7.79965 15.0801 6.63965L14.3201 5.51965L13.0801 4.83965C12.8001 4.79965 12.5201 4.67965 12.3601 4.67965C12.0001 4.67965 11.1201 3.91965 9.6001 3.91965C8.8001 3.91965 8.2801 4.11965 8.0401 4.11965C7.1601 4.11965 6.5601 4.23965 6.0801 4.43965C5.1601 4.79965 4.8401 5.43965 4.6001 6.11965C4.6001 6.11965 4.4401 6.39965 3.9201 7.23965C3.8001 7.51965 3.6401 8.03965 3.6401 8.39965L3.0801 8.87965L2.8401 9.35965C2.6801 9.71965 2.5201 10.1196 2.5201 10.3196L2.3201 11.5996C2.0801 12.7996 2.0001 13.8396 2.0001 14.7596C2.0001 16.1596 2.1201 17.1596 2.1201 17.6796V19.1996L2.3201 19.7596V20.4396L2.6001 21.1196C2.6001 21.1196 2.6401 21.3996 2.6401 21.8396V22.1596C2.6401 22.4396 3.1601 24.0796 3.8001 24.7196L4.5201 25.5996L5.0001 25.9996C5.4801 26.6796 5.8801 26.5996 6.1201 26.8396L6.8001 27.3596L7.3601 27.6396C7.7201 27.9596 8.0801 28.2396 8.2401 28.2796L8.6401 28.4396C9.1601 28.7196 10.1601 29.1196 10.7201 29.1996ZM30.9082 19.9196C30.9482 20.1596 30.9482 20.6396 30.8282 20.9596C30.9482 21.2796 30.9482 21.7996 30.9482 22.2796L30.9082 22.8396V23.4796C30.9482 24.2396 30.9882 24.9996 30.9882 25.7196C30.9882 26.4396 30.9882 27.2396 31.0682 27.9596L31.2282 28.5196C31.3482 29.1196 31.4282 29.6796 31.2682 30.1996C31.0282 30.9196 29.8282 30.7596 29.4682 30.2396C29.3482 29.8796 29.3082 29.2796 29.3482 28.7996L29.3882 28.4796C29.2282 27.1196 29.2282 25.4396 29.1882 24.0796C29.1482 22.2396 29.0682 19.9996 28.9082 18.1996L28.8682 16.1196C28.7082 13.7996 28.5882 11.3996 28.5882 9.11965L28.5082 7.63965V6.83965C28.4282 6.51965 28.4282 6.11965 28.4282 5.71965L28.1082 6.03965L27.1082 6.55965L26.3482 7.19965C26.3482 7.19965 25.6682 7.59965 25.2282 7.87965L23.8682 8.15965L23.5082 7.79965C23.1082 7.47965 23.3082 6.75965 23.3082 6.75965C23.3082 6.75965 24.3082 5.79965 24.4282 5.67965C24.5482 5.51965 24.9882 5.31965 24.9882 5.31965L25.9082 5.03965L26.4682 4.87965L26.8282 4.51965L28.1482 3.79965C28.1882 3.75965 28.3882 3.67965 28.6282 3.59965C28.6682 3.51965 28.7082 3.39965 28.7882 3.31965C29.0282 3.03965 29.5082 3.11965 29.7882 3.19965C29.9082 3.27965 30.0282 3.31965 30.2282 3.31965C30.2682 3.99965 30.2682 4.87965 30.2682 5.63965V5.83965C30.2682 6.63965 30.2682 7.43965 30.3082 8.23965C30.3482 9.23965 30.4682 10.3196 30.5882 11.3596C30.7482 12.7996 30.8282 14.5596 30.8282 15.9996C30.8682 16.2396 30.8682 16.6396 30.8282 16.7996C30.8282 17.4796 30.7882 18.9196 30.9482 19.5996L30.9082 19.9196ZM50.5382 31.2396C48.6982 31.2396 45.6982 30.1596 43.7382 29.2796L43.5782 29.0396L42.8182 28.6796C42.6582 28.5596 42.4982 28.5596 42.1382 28.1596L41.7782 27.7596C40.6182 26.5996 40.0182 26.2396 39.7782 25.5196C39.3782 25.3196 38.9382 24.8796 38.5382 23.6796L38.2982 21.7596V20.3596C38.1782 19.9196 38.1382 19.7996 38.1382 19.6796L38.2582 19.1196C38.2582 18.9596 38.2182 18.6796 38.0982 18.1196L37.8182 16.9596C37.6582 16.1596 37.5782 15.3596 37.6182 14.4796C37.6582 13.6396 37.8182 12.7596 38.0582 11.8396L38.3782 10.9996L38.6582 9.63965C38.6582 9.27965 38.9382 8.31965 39.0982 7.91965L39.2582 7.71965C39.3382 7.31965 39.5782 6.91965 39.7382 6.67965C40.0182 5.27965 40.7382 3.95965 41.7782 3.23965C42.1382 2.87965 42.8182 2.15965 44.4182 2.15965C44.7782 2.15965 45.0982 2.23965 45.2982 2.31965C45.4582 2.31965 46.4982 1.83965 47.4182 1.83965L48.2982 2.27965C48.4982 2.27965 48.8182 2.19965 48.9782 2.19965L50.4982 2.75965C50.7782 2.75965 50.9782 2.75965 51.1382 2.83965L52.2582 3.63965C52.5782 3.83965 52.6582 3.87965 52.7382 4.11965L53.4182 4.83965L53.7382 5.39965L54.6182 6.03965L54.8182 6.87965L55.5782 8.03965L55.7382 9.07965L55.9382 9.35965L56.0582 10.2396L56.3382 10.4796V11.1596L56.4182 12.4796L56.6182 14.3596C56.6182 14.5596 56.4182 15.3196 56.4182 15.3196C56.5782 15.9996 56.6182 16.5996 56.5782 17.1596C56.5382 17.7196 56.4182 18.1996 56.2582 18.6796C56.1782 18.8796 56.2982 19.3196 56.2982 19.5596V20.0396C56.2982 20.0396 56.2182 20.9196 56.0182 21.3196L55.7782 21.7596L55.2582 24.4796L55.0982 25.8796L54.8582 26.1196V26.9196L54.2582 27.9196C54.0582 28.1196 53.8582 28.5196 53.8182 28.6796L53.1782 29.9596L52.6182 30.2396C52.4982 30.3996 52.2182 30.6796 51.8582 30.8396C51.3782 31.0396 51.2182 31.1196 50.5382 31.2396ZM48.2982 29.1996H51.0182L51.1782 29.0396C51.4982 28.6396 51.9382 28.1596 52.4182 27.7196V27.4796C52.8182 26.2796 53.3782 25.3196 53.3382 25.3196C53.6182 24.8796 53.6982 24.6796 54.0982 24.0796C54.0582 23.6396 54.0582 21.5996 54.0582 21.3996L54.8182 19.4396C54.9382 18.6396 55.0182 17.7596 55.0182 16.8396C55.0182 15.7996 54.9782 14.6796 54.8182 13.4396C54.7382 12.8396 54.6182 12.1596 54.6182 11.5596V10.8796L54.2182 10.2396L53.8982 8.87965L53.8182 8.35965C53.7782 8.07965 53.6182 7.79965 52.6582 6.63965L51.8982 5.51965L50.6582 4.83965C50.3782 4.79965 50.0982 4.67965 49.9382 4.67965C49.5782 4.67965 48.6982 3.91965 47.1782 3.91965C46.3782 3.91965 45.8582 4.11965 45.6182 4.11965C44.7382 4.11965 44.1382 4.23965 43.6582 4.43965C42.7382 4.79965 42.4182 5.43965 42.1782 6.11965C42.1782 6.11965 42.0182 6.39965 41.4982 7.23965C41.3782 7.51965 41.2182 8.03965 41.2182 8.39965L40.6582 8.87965L40.4182 9.35965C40.2582 9.71965 40.0982 10.1196 40.0982 10.3196L39.8982 11.5996C39.6582 12.7996 39.5782 13.8396 39.5782 14.7596C39.5782 16.1596 39.6982 17.1596 39.6982 17.6796V19.1996L39.8982 19.7596V20.4396L40.1782 21.1196C40.1782 21.1196 40.2182 21.3996 40.2182 21.8396V22.1596C40.2182 22.4396 40.7382 24.0796 41.3782 24.7196L42.0982 25.5996L42.5782 25.9996C43.0582 26.6796 43.4582 26.5996 43.6982 26.8396L44.3782 27.3596L44.9382 27.6396C45.2982 27.9596 45.6582 28.2396 45.8182 28.2796L46.2182 28.4396C46.7382 28.7196 47.7382 29.1196 48.2982 29.1996ZM61.8063 16.8796C61.2463 16.8796 60.9663 16.5196 61.0463 16.2396C61.1263 16.0396 61.3263 15.7196 61.7663 15.7196L62.0863 15.6396L63.6863 15.2796L64.9663 15.1196C65.6463 15.0396 66.4063 14.9996 67.1263 14.9996C67.8863 14.9996 68.7263 14.9596 69.3663 15.1196C70.2063 15.1596 71.0863 15.1596 71.7263 15.2396C72.4463 15.3196 73.1663 15.2796 73.9663 15.2796C74.1263 15.2796 74.4063 15.2796 74.6063 15.1996L75.0063 15.1196C75.2463 15.0396 75.5263 14.9996 76.0063 14.9996C76.7263 15.7596 76.7663 16.3596 76.5263 16.5596C76.2863 16.7196 75.7263 16.7996 75.0863 16.7996L74.8463 16.8796C74.4463 16.9596 74.0863 16.9996 73.6863 16.9996C73.2063 16.9996 72.4863 16.8396 71.9663 16.7996C70.8863 16.7196 69.9663 16.7196 68.8863 16.7196C67.7663 16.7196 66.5263 16.6796 65.3263 16.8796C64.7263 16.9596 64.0863 16.9596 63.5263 16.9596C62.8863 16.9596 62.3663 16.9596 61.8063 16.8796ZM84.1738 27.3196L82.6538 27.2796C81.9738 27.2396 81.6538 26.7596 81.6538 26.2796C81.6538 25.7996 81.9338 25.3196 82.4138 25.0396C82.7738 24.8796 83.8138 24.5596 83.8138 24.5596C83.9338 24.5596 84.0938 24.5196 84.2538 24.4796C84.4938 24.4396 84.7338 24.3996 84.8138 24.3996L85.9738 24.4396H87.6138C89.1338 23.7996 90.7738 23.1196 92.2938 22.3596C92.7738 22.1196 94.4538 21.1196 94.6538 20.9996L95.0538 20.7196C95.1738 20.5996 95.4538 20.3996 95.6938 20.2396H95.6538L95.9338 19.9996L96.3338 19.7996L96.8538 19.4796H96.8138C97.3338 18.9596 98.0938 18.0396 98.6138 17.1596C98.8938 16.6396 99.3338 15.7596 99.5338 15.2796C99.4538 14.8796 99.4138 14.4796 99.4138 14.2796L99.4538 14.0796L99.0538 13.0396C99.0538 12.9596 99.0538 12.7196 99.0138 12.5596L98.8938 11.9596C98.6938 11.4396 98.2538 10.7196 97.7738 10.0396C97.0538 8.99965 96.0938 7.99965 95.2138 7.35965C95.0138 7.15965 94.5338 6.75965 94.4138 6.67965C94.1338 6.43965 93.8538 6.15965 93.4538 5.83965L92.6938 5.11965H92.7338C92.4138 4.99965 91.7338 4.91965 91.2138 4.87965H91.0138C90.5338 4.99965 89.8538 4.99965 89.3738 5.03965C88.8138 5.11965 88.1738 5.15965 87.7338 5.15965C87.0538 5.27965 86.2138 5.59965 85.6138 5.95965C85.0538 6.31965 84.5338 6.67965 84.0938 7.11965C83.6938 7.51965 83.3738 7.91965 83.2138 8.19965C82.9338 8.51965 82.6538 9.15965 82.4138 9.79965C82.4538 10.1196 82.5738 10.4796 82.4538 10.8396C82.3338 11.0396 82.4138 11.6396 82.4138 11.6396L82.4538 12.8796L82.7738 14.1596C82.7738 14.8396 82.5738 15.2396 82.4138 15.3596C81.9738 15.5996 81.6938 15.5596 81.4938 15.2396C81.0138 14.3196 80.7738 13.6796 80.6938 13.1996C80.6538 12.8396 80.6138 12.3596 80.6138 11.9196C80.6138 11.6396 80.5738 11.3996 80.5738 11.1996L80.4538 10.4396C80.4538 10.4396 80.4938 9.91965 80.5738 9.51965C80.6938 8.83965 80.8538 8.19965 81.0138 7.67965C81.2138 7.11965 81.4938 6.67965 81.7338 6.31965C81.8538 6.15965 82.1738 5.79965 82.6538 5.43965L83.6138 4.83965C83.9738 4.59965 84.5338 4.31965 85.1338 4.03965C85.9338 3.67965 87.0138 3.31965 88.0938 3.07965C88.4938 2.99965 88.9338 2.95965 89.4538 2.95965C90.0138 2.95965 90.6538 2.99965 91.2538 3.11965L91.6538 3.23965C92.0538 3.27965 92.5338 3.43965 92.5338 3.43965L93.3338 3.83965L94.9338 4.71965L95.0538 4.99965V4.95965L95.6138 5.31965L96.6138 6.27965H96.5738C97.2138 6.63965 97.8138 7.11965 98.2938 7.67965C98.8938 8.43965 99.4538 9.35965 100.014 10.3596C100.574 11.4796 100.974 12.4796 101.254 13.7196L101.334 14.1196L101.454 14.5996L101.414 14.8796L101.334 15.2796C101.214 16.1596 100.814 17.0796 100.334 17.8396V17.7996C99.8938 18.5996 99.4538 19.0796 98.9738 19.6796L98.7338 19.9596C97.8938 20.7996 96.7738 21.6396 95.7738 22.2796L95.4138 22.5196L95.1738 22.7196C93.7338 23.4396 92.0538 24.1196 90.5738 24.7196L90.4538 24.7596L91.1738 24.6396C91.7338 24.5196 92.3738 24.3996 92.8938 24.4396C93.2938 24.4396 93.6938 24.3996 94.0938 24.3996C94.0938 24.3996 94.5338 24.3996 95.5338 24.3596H97.1338L98.3738 24.4396L99.9738 24.9996C99.9738 24.9996 100.494 25.1196 100.894 25.2796C101.294 25.2796 102.134 25.3196 102.574 25.3196L105.334 25.5596L107.174 25.8796C107.454 26.2796 107.094 26.6796 107.094 26.6796L105.894 27.2796C105.654 27.3596 102.734 27.2796 102.734 27.2796L99.8538 26.7596L98.5738 26.5996C98.4538 26.5996 98.2538 26.5596 98.0938 26.5196C97.8138 26.4796 97.3738 26.4396 97.1338 26.4396L96.0138 26.2396H95.3338C94.9338 26.2396 94.2138 26.2396 93.7338 26.1996H92.9738C92.6538 26.2796 91.8138 26.2796 91.1338 26.2796C90.8138 26.2796 90.4138 26.3196 90.0938 26.3196H89.6138C89.3338 26.3596 89.0138 26.4796 88.7338 26.5196C88.2938 26.6396 87.8538 26.7196 87.5338 26.7196C87.0938 26.7196 85.8938 27.1196 85.8938 27.1196L84.1738 27.3196ZM121.476 31.2396C119.636 31.2396 116.636 30.1596 114.676 29.2796L114.516 29.0396L113.756 28.6796C113.596 28.5596 113.436 28.5596 113.076 28.1596L112.716 27.7596C111.556 26.5996 110.956 26.2396 110.716 25.5196C110.316 25.3196 109.876 24.8796 109.476 23.6796L109.236 21.7596V20.3596C109.116 19.9196 109.076 19.7996 109.076 19.6796L109.196 19.1196C109.196 18.9596 109.156 18.6796 109.036 18.1196L108.756 16.9596C108.596 16.1596 108.516 15.3596 108.556 14.4796C108.596 13.6396 108.756 12.7596 108.996 11.8396L109.316 10.9996L109.596 9.63965C109.596 9.27965 109.876 8.31965 110.036 7.91965L110.196 7.71965C110.276 7.31965 110.516 6.91965 110.676 6.67965C110.956 5.27965 111.676 3.95965 112.716 3.23965C113.076 2.87965 113.756 2.15965 115.356 2.15965C115.716 2.15965 116.036 2.23965 116.236 2.31965C116.396 2.31965 117.436 1.83965 118.356 1.83965L119.236 2.27965C119.436 2.27965 119.756 2.19965 119.916 2.19965L121.436 2.75965C121.716 2.75965 121.916 2.75965 122.076 2.83965L123.196 3.63965C123.516 3.83965 123.596 3.87965 123.676 4.11965L124.356 4.83965L124.676 5.39965L125.556 6.03965L125.756 6.87965L126.516 8.03965L126.676 9.07965L126.876 9.35965L126.996 10.2396L127.276 10.4796V11.1596L127.356 12.4796L127.556 14.3596C127.556 14.5596 127.356 15.3196 127.356 15.3196C127.516 15.9996 127.556 16.5996 127.516 17.1596C127.476 17.7196 127.356 18.1996 127.196 18.6796C127.116 18.8796 127.236 19.3196 127.236 19.5596V20.0396C127.236 20.0396 127.156 20.9196 126.956 21.3196L126.716 21.7596L126.196 24.4796L126.036 25.8796L125.796 26.1196V26.9196L125.196 27.9196C124.996 28.1196 124.796 28.5196 124.756 28.6796L124.116 29.9596L123.556 30.2396C123.436 30.3996 123.156 30.6796 122.796 30.8396C122.316 31.0396 122.156 31.1196 121.476 31.2396ZM119.236 29.1996H121.956L122.116 29.0396C122.436 28.6396 122.876 28.1596 123.356 27.7196V27.4796C123.756 26.2796 124.316 25.3196 124.276 25.3196C124.556 24.8796 124.636 24.6796 125.036 24.0796C124.996 23.6396 124.996 21.5996 124.996 21.3996L125.756 19.4396C125.876 18.6396 125.956 17.7596 125.956 16.8396C125.956 15.7996 125.916 14.6796 125.756 13.4396C125.676 12.8396 125.556 12.1596 125.556 11.5596V10.8796L125.156 10.2396L124.836 8.87965L124.756 8.35965C124.716 8.07965 124.556 7.79965 123.596 6.63965L122.836 5.51965L121.596 4.83965C121.316 4.79965 121.036 4.67965 120.876 4.67965C120.516 4.67965 119.636 3.91965 118.116 3.91965C117.316 3.91965 116.796 4.11965 116.556 4.11965C115.676 4.11965 115.076 4.23965 114.596 4.43965C113.676 4.79965 113.356 5.43965 113.116 6.11965C113.116 6.11965 112.956 6.39965 112.436 7.23965C112.316 7.51965 112.156 8.03965 112.156 8.39965L111.596 8.87965L111.356 9.35965C111.196 9.71965 111.036 10.1196 111.036 10.3196L110.836 11.5996C110.596 12.7996 110.516 13.8396 110.516 14.7596C110.516 16.1596 110.636 17.1596 110.636 17.6796V19.1996L110.836 19.7596V20.4396L111.116 21.1196C111.116 21.1196 111.156 21.3996 111.156 21.8396V22.1596C111.156 22.4396 111.676 24.0796 112.316 24.7196L113.036 25.5996L113.516 25.9996C113.996 26.6796 114.396 26.5996 114.636 26.8396L115.316 27.3596L115.876 27.6396C116.236 27.9596 116.596 28.2396 116.756 28.2796L117.156 28.4396C117.676 28.7196 118.676 29.1196 119.236 29.1996ZM143.504 4.35965L142.464 4.39965H142.104C142.104 4.39965 141.704 4.43965 141.424 4.47965C141.104 4.51965 140.784 4.47965 140.464 4.51965C140.384 4.43965 140.024 4.47965 139.944 4.51965L137.864 4.59965L136.584 4.87965C136.544 4.87965 135.224 4.99965 134.424 5.03965V6.63965C134.424 7.43965 134.424 8.23965 134.464 9.03965C134.504 9.99965 134.584 10.5996 134.704 11.5996L135.384 11.3196C136.024 10.8796 136.704 10.2396 137.464 9.83965C138.184 9.51965 139.184 9.03965 139.784 8.91965L140.144 8.95965C140.344 8.83965 140.424 8.83965 140.624 8.79965C141.304 8.67965 142.304 8.83965 143.064 9.03965L143.424 9.07965L144.224 9.19965L144.744 9.35965C145.264 9.47965 145.744 9.55965 146.184 9.75965L146.824 9.99965C147.424 10.1596 148.344 10.4396 148.944 10.8796L149.544 11.3996L149.904 11.7196L149.984 11.7996L150.784 12.3196C151.144 12.6796 151.424 12.9596 151.624 13.2796C151.904 13.6796 152.704 16.0396 152.704 17.1196C152.704 17.7996 152.904 18.3996 153.064 18.9596C153.304 19.9196 153.184 20.3996 153.064 20.5996C152.944 20.9596 152.744 21.5996 152.584 21.8796L152.024 23.3596C151.504 24.0396 150.904 24.5996 150.384 25.0396C149.984 25.5196 149.424 26.2396 148.624 26.9596C148.024 27.5996 147.224 28.2796 146.344 28.9196L146.144 29.1596L145.224 29.6396L144.504 29.9996C144.024 30.2396 143.584 30.3596 143.064 30.4796L142.024 30.7596L140.704 30.9196C140.624 30.8796 140.384 30.8396 139.264 30.8396L138.864 30.8796L137.584 30.6796C137.304 30.6796 137.024 30.7196 136.784 30.5996L136.384 30.3996C136.264 30.3596 136.064 30.2796 136.064 30.2796C135.904 30.2796 135.624 30.1196 135.384 29.9196C135.264 29.7996 135.104 29.6396 135.064 29.4796L134.824 29.3196C134.704 29.0796 134.864 28.2796 134.864 28.2396L136.064 28.6396L137.224 28.9596C138.064 28.9996 139.104 29.0396 140.104 29.0396C140.304 28.9996 140.984 28.9596 141.784 28.9196L143.224 28.7596L143.984 28.1596C144.224 28.0396 144.464 27.8796 144.824 27.7196L145.744 27.0796L146.624 26.3996C147.104 26.0396 147.584 25.5596 148.104 25.1196C148.544 24.6796 148.984 24.3196 149.304 23.9596L150.104 23.1196L151.104 20.8396C151.344 20.3996 151.464 20.0396 151.624 19.5996L151.584 19.4796L151.304 18.3196L150.984 16.8396C150.864 16.4396 150.384 14.7196 150.144 14.3996C149.784 13.9996 149.664 13.5596 149.304 13.3196C148.904 12.9196 148.504 12.6796 148.064 12.4396C147.624 12.3196 146.664 11.9196 146.304 11.5596C145.664 11.4396 144.384 11.2396 143.704 10.8796H143.264C142.344 10.6796 141.264 10.5596 140.344 10.5196L140.264 10.5596C139.304 10.9196 138.744 11.1996 137.904 11.6796C137.824 11.7596 137.464 11.9596 137.024 12.2396C136.544 12.5196 136.024 12.8796 135.744 13.1596C135.384 13.5196 135.464 13.9196 135.064 14.3996L134.904 14.5996C134.904 14.9596 134.824 15.1996 134.784 15.3196C134.464 15.4396 134.144 15.5196 133.864 15.5996C133.544 15.6796 133.224 15.7196 132.904 15.7196C132.784 13.9196 132.744 11.6796 132.744 9.91965L132.664 8.43965V7.63965C132.544 7.11965 132.584 5.99965 132.584 5.47965C132.584 5.19965 132.584 4.75965 132.704 4.35965V4.31965C132.704 4.27965 132.744 4.19965 132.744 4.11965C132.784 3.95965 132.864 3.83965 132.944 3.71965C133.024 3.59965 133.224 3.55965 133.384 3.51965C133.464 3.51965 133.544 3.47965 133.624 3.47965L135.304 2.99965C135.904 2.87965 136.584 2.71965 137.344 2.67965C137.344 2.67965 139.064 2.71965 139.464 2.67965L142.264 2.47965H142.904C143.344 2.39965 144.264 2.35965 144.584 2.35965L144.744 2.43965C144.744 2.43965 146.944 2.19965 147.264 2.19965H148.784L149.184 2.35965L149.824 2.19965L150.784 2.03965C150.784 2.03965 151.224 2.03965 151.384 2.11965C151.584 2.15965 152.904 2.51965 152.904 2.51965C152.904 2.51965 153.464 3.07965 153.224 3.51965L153.064 3.99965L151.784 4.39965C151.264 4.39965 150.464 4.47965 150.464 4.47965L149.464 4.11965H148.344L147.784 3.99965L147.544 4.11965H146.984C146.464 4.07965 145.824 4.15965 145.824 4.15965L145.704 4.23965C145.704 4.23965 145.024 4.27965 144.704 4.35965C144.624 4.39965 143.664 4.35965 143.504 4.35965ZM171.046 31.2396C169.206 31.2396 166.206 30.1596 164.246 29.2796L164.086 29.0396L163.326 28.6796C163.166 28.5596 163.006 28.5596 162.646 28.1596L162.286 27.7596C161.126 26.5996 160.526 26.2396 160.286 25.5196C159.886 25.3196 159.446 24.8796 159.046 23.6796L158.806 21.7596V20.3596C158.686 19.9196 158.646 19.7996 158.646 19.6796L158.766 19.1196C158.766 18.9596 158.726 18.6796 158.606 18.1196L158.326 16.9596C158.166 16.1596 158.086 15.3596 158.126 14.4796C158.166 13.6396 158.326 12.7596 158.566 11.8396L158.886 10.9996L159.166 9.63965C159.166 9.27965 159.446 8.31965 159.606 7.91965L159.766 7.71965C159.846 7.31965 160.086 6.91965 160.246 6.67965C160.526 5.27965 161.246 3.95965 162.286 3.23965C162.646 2.87965 163.326 2.15965 164.926 2.15965C165.286 2.15965 165.606 2.23965 165.806 2.31965C165.966 2.31965 167.006 1.83965 167.926 1.83965L168.806 2.27965C169.006 2.27965 169.326 2.19965 169.486 2.19965L171.006 2.75965C171.286 2.75965 171.486 2.75965 171.646 2.83965L172.766 3.63965C173.086 3.83965 173.166 3.87965 173.246 4.11965L173.926 4.83965L174.246 5.39965L175.126 6.03965L175.326 6.87965L176.086 8.03965L176.246 9.07965L176.446 9.35965L176.566 10.2396L176.846 10.4796V11.1596L176.926 12.4796L177.126 14.3596C177.126 14.5596 176.926 15.3196 176.926 15.3196C177.086 15.9996 177.126 16.5996 177.086 17.1596C177.046 17.7196 176.926 18.1996 176.766 18.6796C176.686 18.8796 176.806 19.3196 176.806 19.5596V20.0396C176.806 20.0396 176.726 20.9196 176.526 21.3196L176.286 21.7596L175.766 24.4796L175.606 25.8796L175.366 26.1196V26.9196L174.766 27.9196C174.566 28.1196 174.366 28.5196 174.326 28.6796L173.686 29.9596L173.126 30.2396C173.006 30.3996 172.726 30.6796 172.366 30.8396C171.886 31.0396 171.726 31.1196 171.046 31.2396ZM168.806 29.1996H171.526L171.686 29.0396C172.006 28.6396 172.446 28.1596 172.926 27.7196V27.4796C173.326 26.2796 173.886 25.3196 173.846 25.3196C174.126 24.8796 174.206 24.6796 174.606 24.0796C174.566 23.6396 174.566 21.5996 174.566 21.3996L175.326 19.4396C175.446 18.6396 175.526 17.7596 175.526 16.8396C175.526 15.7996 175.486 14.6796 175.326 13.4396C175.246 12.8396 175.126 12.1596 175.126 11.5596V10.8796L174.726 10.2396L174.406 8.87965L174.326 8.35965C174.286 8.07965 174.126 7.79965 173.166 6.63965L172.406 5.51965L171.166 4.83965C170.886 4.79965 170.606 4.67965 170.446 4.67965C170.086 4.67965 169.206 3.91965 167.686 3.91965C166.886 3.91965 166.366 4.11965 166.126 4.11965C165.246 4.11965 164.646 4.23965 164.166 4.43965C163.246 4.79965 162.926 5.43965 162.686 6.11965C162.686 6.11965 162.526 6.39965 162.006 7.23965C161.886 7.51965 161.726 8.03965 161.726 8.39965L161.166 8.87965L160.926 9.35965C160.766 9.71965 160.606 10.1196 160.606 10.3196L160.406 11.5996C160.166 12.7996 160.086 13.8396 160.086 14.7596C160.086 16.1596 160.206 17.1596 160.206 17.6796V19.1996L160.406 19.7596V20.4396L160.686 21.1196C160.686 21.1196 160.726 21.3996 160.726 21.8396V22.1596C160.726 22.4396 161.246 24.0796 161.886 24.7196L162.606 25.5996L163.086 25.9996C163.566 26.6796 163.966 26.5996 164.206 26.8396L164.886 27.3596L165.446 27.6396C165.806 27.9596 166.166 28.2396 166.326 28.2796L166.726 28.4396C167.246 28.7196 168.246 29.1196 168.806 29.1996ZM182.314 16.8796C181.754 16.8796 181.474 16.5196 181.554 16.2396C181.634 16.0396 181.834 15.7196 182.274 15.7196L182.594 15.6396L184.194 15.2796L185.474 15.1196C186.154 15.0396 186.914 14.9996 187.634 14.9996C188.394 14.9996 189.234 14.9596 189.874 15.1196C190.714 15.1596 191.594 15.1596 192.234 15.2396C192.954 15.3196 193.674 15.2796 194.474 15.2796C194.634 15.2796 194.914 15.2796 195.114 15.1996L195.514 15.1196C195.754 15.0396 196.034 14.9996 196.514 14.9996C197.234 15.7596 197.274 16.3596 197.034 16.5596C196.794 16.7196 196.234 16.7996 195.594 16.7996L195.354 16.8796C194.954 16.9596 194.594 16.9996 194.194 16.9996C193.714 16.9996 192.994 16.8396 192.474 16.7996C191.394 16.7196 190.474 16.7196 189.394 16.7196C188.274 16.7196 187.034 16.6796 185.834 16.8796C185.234 16.9596 184.594 16.9596 184.034 16.9596C183.394 16.9596 182.874 16.9596 182.314 16.8796ZM214.562 31.2396C212.722 31.2396 209.722 30.1596 207.762 29.2796L207.602 29.0396L206.842 28.6796C206.682 28.5596 206.522 28.5596 206.162 28.1596L205.802 27.7596C204.642 26.5996 204.042 26.2396 203.802 25.5196C203.402 25.3196 202.962 24.8796 202.562 23.6796L202.322 21.7596V20.3596C202.202 19.9196 202.162 19.7996 202.162 19.6796L202.282 19.1196C202.282 18.9596 202.242 18.6796 202.122 18.1196L201.842 16.9596C201.682 16.1596 201.602 15.3596 201.642 14.4796C201.682 13.6396 201.842 12.7596 202.082 11.8396L202.402 10.9996L202.682 9.63965C202.682 9.27965 202.962 8.31965 203.122 7.91965L203.282 7.71965C203.362 7.31965 203.602 6.91965 203.762 6.67965C204.042 5.27965 204.762 3.95965 205.802 3.23965C206.162 2.87965 206.842 2.15965 208.442 2.15965C208.802 2.15965 209.122 2.23965 209.322 2.31965C209.482 2.31965 210.522 1.83965 211.442 1.83965L212.322 2.27965C212.522 2.27965 212.842 2.19965 213.002 2.19965L214.522 2.75965C214.802 2.75965 215.002 2.75965 215.162 2.83965L216.282 3.63965C216.602 3.83965 216.682 3.87965 216.762 4.11965L217.442 4.83965L217.762 5.39965L218.642 6.03965L218.842 6.87965L219.602 8.03965L219.762 9.07965L219.962 9.35965L220.082 10.2396L220.362 10.4796V11.1596L220.442 12.4796L220.642 14.3596C220.642 14.5596 220.442 15.3196 220.442 15.3196C220.602 15.9996 220.642 16.5996 220.602 17.1596C220.562 17.7196 220.442 18.1996 220.282 18.6796C220.202 18.8796 220.322 19.3196 220.322 19.5596V20.0396C220.322 20.0396 220.242 20.9196 220.042 21.3196L219.802 21.7596L219.282 24.4796L219.122 25.8796L218.882 26.1196V26.9196L218.282 27.9196C218.082 28.1196 217.882 28.5196 217.842 28.6796L217.202 29.9596L216.642 30.2396C216.522 30.3996 216.242 30.6796 215.882 30.8396C215.402 31.0396 215.242 31.1196 214.562 31.2396ZM212.322 29.1996H215.042L215.202 29.0396C215.522 28.6396 215.962 28.1596 216.442 27.7196V27.4796C216.842 26.2796 217.402 25.3196 217.362 25.3196C217.642 24.8796 217.722 24.6796 218.122 24.0796C218.082 23.6396 218.082 21.5996 218.082 21.3996L218.842 19.4396C218.962 18.6396 219.042 17.7596 219.042 16.8396C219.042 15.7996 219.002 14.6796 218.842 13.4396C218.762 12.8396 218.642 12.1596 218.642 11.5596V10.8796L218.242 10.2396L217.922 8.87965L217.842 8.35965C217.802 8.07965 217.642 7.79965 216.682 6.63965L215.922 5.51965L214.682 4.83965C214.402 4.79965 214.122 4.67965 213.962 4.67965C213.602 4.67965 212.722 3.91965 211.202 3.91965C210.402 3.91965 209.882 4.11965 209.642 4.11965C208.762 4.11965 208.162 4.23965 207.682 4.43965C206.762 4.79965 206.442 5.43965 206.202 6.11965C206.202 6.11965 206.042 6.39965 205.522 7.23965C205.402 7.51965 205.242 8.03965 205.242 8.39965L204.682 8.87965L204.442 9.35965C204.282 9.71965 204.122 10.1196 204.122 10.3196L203.922 11.5996C203.682 12.7996 203.602 13.8396 203.602 14.7596C203.602 16.1596 203.722 17.1596 203.722 17.6796V19.1996L203.922 19.7596V20.4396L204.202 21.1196C204.202 21.1196 204.242 21.3996 204.242 21.8396V22.1596C204.242 22.4396 204.762 24.0796 205.402 24.7196L206.122 25.5996L206.602 25.9996C207.082 26.6796 207.482 26.5996 207.722 26.8396L208.402 27.3596L208.962 27.6396C209.322 27.9596 209.682 28.2396 209.842 28.2796L210.242 28.4396C210.762 28.7196 211.762 29.1196 212.322 29.1996ZM236.11 4.07965L236.55 3.59965L236.59 3.51965L236.39 2.95965L236.07 2.11965C235.91 1.71965 235.75 1.27965 235.71 0.999648C235.59 0.439648 236.59 -0.000353336 237.07 0.359647C237.51 0.679647 238.27 1.79965 238.55 2.83965L239.91 6.67965L241.07 10.6396C241.43 11.9996 241.55 13.3596 241.63 14.4796C241.67 15.1596 241.75 15.7596 241.83 16.1996C242.15 18.0396 242.55 19.9596 242.79 22.3596C243.43 22.3596 244.07 22.2796 244.67 22.1596C245.43 22.0796 246.43 21.8396 247.55 21.5196C247.87 21.4796 248.39 21.4796 248.99 21.5596C249.15 21.6396 249.27 21.8396 249.39 22.0796C249.51 22.3596 249.59 22.5596 249.59 22.7996L249.03 23.3596C248.47 23.6796 248.15 23.7196 247.95 23.7196C246.99 23.7196 245.99 23.7596 244.95 23.8396L243.87 23.9196L243.27 23.9596C243.15 23.9996 243.03 23.9996 242.95 23.9996C242.95 24.1596 242.95 24.3196 242.99 24.4396L243.39 30.4796L243.59 33.7996C243.67 34.7596 243.23 34.9996 242.63 34.7196C241.95 34.4396 241.67 33.9596 241.59 33.1996L241.67 29.0396C241.67 29.0396 241.11 26.4396 240.83 24.1996C239.95 24.2796 239.07 24.2796 238.15 24.2396C237.23 24.2396 236.35 24.2796 235.43 24.2796H233.47C232.71 24.2796 231.95 24.3196 230.83 24.1996L229.83 24.0796C229.55 24.0796 229.15 23.9996 228.87 23.9996C228.55 23.9996 228.23 23.9596 227.91 23.9196H227.19C226.99 23.9196 226.79 23.9596 226.59 23.9596C226.39 23.9196 226.15 23.9196 225.95 23.9196C225.75 23.9196 225.47 23.8796 225.23 23.8796C224.75 23.1196 224.51 22.6796 224.75 21.8796C225.07 21.3196 225.39 20.6396 225.95 19.8396L226.07 19.5596L227.91 16.7196L228.35 16.0796C228.71 15.4396 229.03 15.2396 229.39 14.5196C230.23 13.2796 230.99 12.2396 231.59 10.9996L232.83 8.63965L233.59 7.95965C233.79 7.47965 234.07 6.95965 234.47 6.35965L234.63 6.15965L234.83 5.83965L235.91 4.39965C235.91 4.35965 236.11 4.11965 236.11 4.07965ZM238.35 7.95965L237.43 5.63965C237.03 6.19965 236.47 6.99965 236.11 7.63965L233.75 11.0796L231.71 14.1196C230.75 16.0796 229.83 17.0396 228.95 18.6796C228.71 18.9996 228.35 19.5596 227.95 20.2396L227.59 20.8396L226.91 22.0796L228.27 22.2396L229.59 22.4396C230.55 22.4796 231.95 22.4796 232.87 22.3196C233.23 22.3596 233.59 22.3996 233.99 22.3996C234.19 22.3996 234.39 22.4396 234.59 22.4396L235.63 22.4796C236.19 22.5196 236.75 22.5596 237.31 22.5596C238.03 22.5596 238.79 22.5196 239.59 22.4796C239.95 22.4796 240.31 22.4396 240.71 22.4396C240.71 22.2796 240.67 22.1596 240.67 21.9996C240.59 20.8396 240.47 19.2396 240.35 18.1196L240.27 17.2796C240.07 15.5996 239.87 14.3596 239.67 13.0796C239.43 11.6396 238.55 8.51965 238.35 7.95965ZM256.479 27.3196L254.959 27.2796C254.279 27.2396 253.959 26.7596 253.959 26.2796C253.959 25.7996 254.239 25.3196 254.719 25.0396C255.079 24.8796 256.119 24.5596 256.119 24.5596C256.239 24.5596 256.399 24.5196 256.559 24.4796C256.799 24.4396 257.039 24.3996 257.119 24.3996L258.279 24.4396H259.919C261.439 23.7996 263.079 23.1196 264.599 22.3596C265.079 22.1196 266.759 21.1196 266.959 20.9996L267.359 20.7196C267.479 20.5996 267.759 20.3996 267.999 20.2396H267.959L268.239 19.9996L268.639 19.7996L269.159 19.4796H269.119C269.639 18.9596 270.399 18.0396 270.919 17.1596C271.199 16.6396 271.639 15.7596 271.839 15.2796C271.759 14.8796 271.719 14.4796 271.719 14.2796L271.759 14.0796L271.359 13.0396C271.359 12.9596 271.359 12.7196 271.319 12.5596L271.199 11.9596C270.999 11.4396 270.559 10.7196 270.079 10.0396C269.359 8.99965 268.399 7.99965 267.519 7.35965C267.319 7.15965 266.839 6.75965 266.719 6.67965C266.439 6.43965 266.159 6.15965 265.759 5.83965L264.999 5.11965H265.039C264.719 4.99965 264.039 4.91965 263.519 4.87965H263.319C262.839 4.99965 262.159 4.99965 261.679 5.03965C261.119 5.11965 260.479 5.15965 260.039 5.15965C259.359 5.27965 258.519 5.59965 257.919 5.95965C257.359 6.31965 256.839 6.67965 256.399 7.11965C255.999 7.51965 255.679 7.91965 255.519 8.19965C255.239 8.51965 254.959 9.15965 254.719 9.79965C254.759 10.1196 254.879 10.4796 254.759 10.8396C254.639 11.0396 254.719 11.6396 254.719 11.6396L254.759 12.8796L255.079 14.1596C255.079 14.8396 254.879 15.2396 254.719 15.3596C254.279 15.5996 253.999 15.5596 253.799 15.2396C253.319 14.3196 253.079 13.6796 252.999 13.1996C252.959 12.8396 252.919 12.3596 252.919 11.9196C252.919 11.6396 252.879 11.3996 252.879 11.1996L252.759 10.4396C252.759 10.4396 252.799 9.91965 252.879 9.51965C252.999 8.83965 253.159 8.19965 253.319 7.67965C253.519 7.11965 253.799 6.67965 254.039 6.31965C254.159 6.15965 254.479 5.79965 254.959 5.43965L255.919 4.83965C256.279 4.59965 256.839 4.31965 257.439 4.03965C258.239 3.67965 259.319 3.31965 260.399 3.07965C260.799 2.99965 261.239 2.95965 261.759 2.95965C262.319 2.95965 262.959 2.99965 263.559 3.11965L263.959 3.23965C264.359 3.27965 264.839 3.43965 264.839 3.43965L265.639 3.83965L267.239 4.71965L267.359 4.99965V4.95965L267.919 5.31965L268.919 6.27965H268.879C269.519 6.63965 270.119 7.11965 270.599 7.67965C271.199 8.43965 271.759 9.35965 272.319 10.3596C272.879 11.4796 273.279 12.4796 273.559 13.7196L273.639 14.1196L273.759 14.5996L273.719 14.8796L273.639 15.2796C273.519 16.1596 273.119 17.0796 272.639 17.8396V17.7996C272.199 18.5996 271.759 19.0796 271.279 19.6796L271.039 19.9596C270.199 20.7996 269.079 21.6396 268.079 22.2796L267.719 22.5196L267.479 22.7196C266.039 23.4396 264.359 24.1196 262.879 24.7196L262.759 24.7596L263.479 24.6396C264.039 24.5196 264.679 24.3996 265.199 24.4396C265.599 24.4396 265.999 24.3996 266.399 24.3996C266.399 24.3996 266.839 24.3996 267.839 24.3596H269.439L270.679 24.4396L272.279 24.9996C272.279 24.9996 272.799 25.1196 273.199 25.2796C273.599 25.2796 274.439 25.3196 274.879 25.3196L277.639 25.5596L279.479 25.8796C279.759 26.2796 279.399 26.6796 279.399 26.6796L278.199 27.2796C277.959 27.3596 275.039 27.2796 275.039 27.2796L272.159 26.7596L270.879 26.5996C270.759 26.5996 270.559 26.5596 270.399 26.5196C270.119 26.4796 269.679 26.4396 269.439 26.4396L268.319 26.2396H267.639C267.239 26.2396 266.519 26.2396 266.039 26.1996H265.279C264.959 26.2796 264.119 26.2796 263.439 26.2796C263.119 26.2796 262.719 26.3196 262.399 26.3196H261.919C261.639 26.3596 261.319 26.4796 261.039 26.5196C260.599 26.6396 260.159 26.7196 259.839 26.7196C259.399 26.7196 258.199 27.1196 258.199 27.1196L256.479 27.3196ZM293.024 4.07965L293.464 3.59965L293.504 3.51965L293.304 2.95965L292.984 2.11965C292.824 1.71965 292.664 1.27965 292.624 0.999648C292.504 0.439648 293.504 -0.000353336 293.984 0.359647C294.424 0.679647 295.184 1.79965 295.464 2.83965L296.824 6.67965L297.984 10.6396C298.344 11.9996 298.464 13.3596 298.544 14.4796C298.584 15.1596 298.664 15.7596 298.744 16.1996C299.064 18.0396 299.464 19.9596 299.704 22.3596C300.344 22.3596 300.984 22.2796 301.584 22.1596C302.344 22.0796 303.344 21.8396 304.464 21.5196C304.784 21.4796 305.304 21.4796 305.904 21.5596C306.064 21.6396 306.184 21.8396 306.304 22.0796C306.424 22.3596 306.504 22.5596 306.504 22.7996L305.944 23.3596C305.384 23.6796 305.064 23.7196 304.864 23.7196C303.904 23.7196 302.904 23.7596 301.864 23.8396L300.784 23.9196L300.184 23.9596C300.064 23.9996 299.944 23.9996 299.864 23.9996C299.864 24.1596 299.864 24.3196 299.904 24.4396L300.304 30.4796L300.504 33.7996C300.584 34.7596 300.144 34.9996 299.544 34.7196C298.864 34.4396 298.584 33.9596 298.504 33.1996L298.584 29.0396C298.584 29.0396 298.024 26.4396 297.744 24.1996C296.864 24.2796 295.984 24.2796 295.064 24.2396C294.144 24.2396 293.264 24.2796 292.344 24.2796H290.384C289.624 24.2796 288.864 24.3196 287.744 24.1996L286.744 24.0796C286.464 24.0796 286.064 23.9996 285.784 23.9996C285.464 23.9996 285.144 23.9596 284.824 23.9196H284.104C283.904 23.9196 283.704 23.9596 283.504 23.9596C283.304 23.9196 283.064 23.9196 282.864 23.9196C282.664 23.9196 282.384 23.8796 282.144 23.8796C281.664 23.1196 281.424 22.6796 281.664 21.8796C281.984 21.3196 282.304 20.6396 282.864 19.8396L282.984 19.5596L284.824 16.7196L285.264 16.0796C285.624 15.4396 285.944 15.2396 286.304 14.5196C287.144 13.2796 287.904 12.2396 288.504 10.9996L289.744 8.63965L290.504 7.95965C290.704 7.47965 290.984 6.95965 291.384 6.35965L291.544 6.15965L291.744 5.83965L292.824 4.39965C292.824 4.35965 293.024 4.11965 293.024 4.07965ZM295.264 7.95965L294.344 5.63965C293.944 6.19965 293.384 6.99965 293.024 7.63965L290.664 11.0796L288.624 14.1196C287.664 16.0796 286.744 17.0396 285.864 18.6796C285.624 18.9996 285.264 19.5596 284.864 20.2396L284.504 20.8396L283.824 22.0796L285.184 22.2396L286.504 22.4396C287.464 22.4796 288.864 22.4796 289.784 22.3196C290.144 22.3596 290.504 22.3996 290.904 22.3996C291.104 22.3996 291.304 22.4396 291.504 22.4396L292.544 22.4796C293.104 22.5196 293.664 22.5596 294.224 22.5596C294.944 22.5596 295.704 22.5196 296.504 22.4796C296.864 22.4796 297.224 22.4396 297.624 22.4396C297.624 22.2796 297.584 22.1596 297.584 21.9996C297.504 20.8396 297.384 19.2396 297.264 18.1196L297.184 17.2796C296.984 15.5996 296.784 14.3596 296.584 13.0796C296.344 11.6396 295.464 8.51965 295.264 7.95965Z" fill="black"/>
</svg>
