<svg width="491" height="39" viewBox="0 0 491 39" fill="none" xmlns="http://www.w3.org/2000/svg">
<path d="M0.120039 17.3196C3.91603e-05 16.6796 0.160039 15.9596 0.280039 15.3996C0.280039 15.2396 0.360039 14.5596 0.360039 14.3996L0.480039 13.7196C0.560039 13.2396 1.00004 12.2396 1.28004 11.7596C1.28004 11.6796 1.32004 11.3596 1.44004 11.1196C1.56004 10.5196 2.00004 9.55965 2.48004 8.99965L2.92004 8.39965L3.36004 7.59965L3.72004 7.31965L4.28004 6.75965L4.64004 6.55965C5.08004 6.27965 5.56004 5.63965 6.36004 5.47965L8.04004 5.19965C8.20004 5.19965 8.32004 5.15965 8.52004 5.11965C8.84004 5.11965 9.16004 5.11965 9.52004 5.03965C10.16 4.91965 10.92 4.87965 11.56 4.91965L11.92 4.99965L12.52 5.07965L13.04 5.27965L13.6 5.47965L14.28 5.87965C14.72 6.03965 15 6.31965 15.72 6.87965L16.48 7.55965L17.04 8.15965C17.44 8.43965 17.84 8.71965 18.08 8.95965L18.48 9.55965L18.88 10.2396C19.04 10.3996 19.24 10.7996 19.36 10.9996C19.4 11.1196 19.48 11.2796 19.6 11.3596C19.96 11.5196 20.28 11.8396 20.4 12.2796C20.56 12.7996 20.12 13.1996 19.44 13.2396C19.2 13.2396 19.04 13.2796 18.8 13.1596C18.64 13.0796 18.56 12.9196 18.44 12.8396C18.32 12.5996 18.2 12.3196 18.08 11.9596C18.04 11.7596 17.84 11.5596 17.72 11.2796L16.88 9.67965C16.4 9.31965 15.84 8.55965 15.32 8.27965L14.68 7.71965C14.28 7.47965 13.88 7.23965 13.56 7.15965L12.56 6.87965C11.76 6.63965 10.92 6.39965 10.28 6.47965C9.96004 6.51965 9.64004 6.51965 9.32004 6.59965L8.16004 6.87965C7.88004 6.91965 7.52004 7.03965 7.36004 7.03965L7.20004 7.07965L6.68004 7.23965C5.08004 7.87965 4.40004 9.63965 3.92004 10.4796L3.68004 10.8796C3.32004 11.4396 2.96004 11.9596 2.88004 12.1596L2.32004 13.7596L2.24004 14.1596L2.12004 14.5196L2.08004 14.8796C1.92004 15.7196 1.76004 16.9596 1.76004 17.7596C1.80004 18.3196 2.08004 20.4796 2.28004 21.4396C2.36004 21.9196 2.44004 22.2796 2.44004 22.3596C3.12004 23.9596 3.88004 25.4396 5.12004 26.7996C6.84004 28.3596 9.64004 29.4396 12.08 29.5996C13.84 29.7196 15.16 29.8796 15.48 29.7996C16.16 29.7196 16.56 30.0396 16.68 30.4396C16.76 30.8396 16.48 31.2796 15.76 31.3996C15.28 31.5196 13.04 31.3196 12.04 31.1996C11.52 31.1596 10.36 31.0396 9.84004 30.8396C9.44004 30.7596 8.92004 30.7196 8.56004 30.6396L7.68004 30.3596L6.68004 30.0396L6.04004 29.5596C5.40004 29.2396 5.08004 28.9996 4.96004 28.7996C3.84004 27.6796 2.20004 25.7596 1.48004 24.0796L1.24004 23.5196L1.20004 23.3596C1.20004 23.3196 1.16004 23.2396 1.16004 23.1996C1.12004 23.0396 1.04004 22.8796 1.04004 22.7196C0.800039 22.0796 0.560039 21.2396 0.440039 20.5196C0.240039 19.5596 0.160039 18.5596 0.240039 18.0796C0.120039 17.8796 0.160039 17.5196 0.120039 17.3196ZM25.1091 2.43965H25.1891C26.5091 2.11965 26.7091 3.11965 26.8691 4.31965C27.2291 6.43965 27.5891 8.79965 27.5891 10.7996C27.8691 10.7996 28.0291 10.7596 28.2691 10.6796L29.1491 10.5196L29.5091 10.4396C30.6291 10.1596 31.6691 10.0796 32.8291 10.1196C34.7091 10.1996 35.7091 10.5196 36.8691 11.3196C37.9891 12.0796 38.9891 12.7996 40.0691 13.7196C41.3891 14.8396 43.1091 17.0396 43.7891 18.4796C43.9891 18.9596 44.1091 19.5596 44.1091 20.1196C44.1091 20.6396 44.0291 21.1996 43.9491 21.6796L43.7091 23.2796C43.4691 24.9996 43.2291 27.3196 43.2291 28.7996C43.2291 29.2796 43.1491 31.6796 42.5091 31.8796C41.9091 32.0796 41.2291 31.3996 41.1891 30.8396C41.1491 30.4396 41.2291 29.6796 41.3091 29.1596V28.9596C41.3091 28.8796 41.3491 28.8396 41.3491 28.7596C41.4291 28.3996 41.4691 27.9996 41.4691 27.6396L41.5891 26.7996C41.4691 26.5996 41.5091 26.0796 41.5491 25.6796C41.5491 25.6796 41.5891 25.6396 41.5891 25.5996L41.4691 25.2796C41.4691 24.4796 41.5891 23.5996 41.7091 22.7996L41.8291 22.1596C41.9491 21.3996 42.0691 20.4396 42.0291 19.8796C42.0291 18.2796 40.3891 16.1596 38.9891 15.0796L38.4691 14.6796C37.8691 14.1196 36.9491 13.5196 36.2291 13.0396C34.8691 12.3196 33.3091 11.9196 32.0691 11.9596L31.3491 12.1196L31.0691 12.1996C31.0291 12.1996 30.9891 12.2396 30.9491 12.2396C30.6291 12.3196 30.1091 12.3996 29.8691 12.3996C29.6691 12.5196 29.3091 12.6796 28.9091 12.7596H28.9491C28.5891 12.8796 28.2291 12.9996 28.0691 13.1196C27.9491 13.3996 27.9091 13.8396 27.9091 14.1996C27.9091 14.5996 27.9491 14.9196 27.9891 15.2796V15.4396C28.0291 15.8396 28.0691 16.3996 28.0691 16.8796C28.0691 19.5996 28.0691 22.3196 27.9491 25.0396C27.9491 25.5996 28.0291 26.7196 28.1091 27.1596L28.1891 27.7996C28.1891 27.9996 28.1891 28.1996 28.2291 28.3996L28.3491 29.6396C28.3491 30.2796 27.9091 30.7996 27.4691 30.7996C27.0291 30.7996 26.5491 30.5596 26.4291 30.0796C26.3091 29.3596 26.1891 28.5996 26.1091 27.6796C26.1091 27.2396 26.1091 26.7196 26.4691 26.3196C26.2291 26.0396 26.1091 25.5996 26.1091 25.2396C26.1091 24.9596 26.1491 24.5196 26.1891 24.2396C26.1891 24.0796 26.2291 23.8396 26.2291 23.7196C26.3091 23.1996 26.3491 22.5996 26.3491 22.0396L26.3891 22.0796C26.3891 22.0796 26.3091 21.6796 26.2691 21.3596C26.2691 21.1996 26.2291 21.0396 26.2291 20.9196C26.1491 20.5996 26.1091 20.1196 26.1091 19.8396V19.1196C26.0691 18.4796 26.1091 17.7996 26.1891 16.9996L26.3091 16.5196C26.2291 16.3596 26.2691 15.9196 26.3091 15.6396C26.1091 15.1996 26.0691 14.3996 26.0691 13.6396C26.0691 13.1996 26.0691 12.7196 26.1091 12.4796C26.0691 11.9996 25.9491 11.3996 25.9091 10.9196C25.7891 10.6396 25.6291 10.0796 25.6291 9.35965C25.6291 9.15965 25.6291 8.71965 25.6691 8.43965C25.4291 7.87965 25.2691 6.79965 25.2291 6.15965C25.2291 6.11965 25.1891 6.07965 25.1891 5.99965V5.47965C25.2291 5.11965 25.1491 4.47965 25.0691 3.99965C24.9891 3.55965 24.8691 2.63965 25.1091 2.43965ZM52.7585 19.8796C52.7985 20.1196 52.8385 20.5596 52.7185 20.9196C52.8785 21.1996 52.8785 21.7196 52.9185 22.1996V22.3596C52.9185 22.5996 52.9185 22.8396 52.9585 22.9996C53.0385 23.7596 53.1185 24.5196 53.1585 25.2396C53.1985 25.9596 53.2385 26.7596 53.3585 27.4796L53.5185 28.0396C53.6785 28.6396 53.7985 29.1996 53.6785 29.7196C53.4785 30.4396 52.2385 30.3596 51.8785 29.8396C51.7185 29.4796 51.6385 28.8796 51.6785 28.3996V28.0796C51.4785 26.7596 51.3585 25.0796 51.2785 23.7196C51.1185 21.8796 50.9185 20.0396 50.6785 18.2396L50.5185 16.9596C50.2385 14.6796 49.9985 12.2796 49.8785 9.99965L49.7185 8.51965L49.6385 7.71965C49.5185 7.19965 49.5185 6.47965 49.4785 5.95965C49.4385 5.51965 49.4785 4.59965 49.7585 4.19965C49.9585 3.91965 50.4385 3.95965 50.7585 4.03965C50.8785 4.07965 50.9985 4.11965 51.1985 4.11965C51.2785 4.79965 51.3185 5.67965 51.3585 6.43965V6.63965C51.3985 7.43965 51.4385 8.23965 51.5185 9.03965C51.6385 10.0396 51.7985 11.0796 51.9585 12.1196C52.1985 13.5596 52.3985 15.3196 52.4785 16.7596C52.5185 16.9996 52.5185 17.3996 52.5185 17.5596C52.5585 18.2396 52.5985 18.8796 52.7585 19.5596V19.8796ZM63.071 4.27965C62.791 2.47965 64.471 3.03965 64.911 4.07965C65.031 4.35965 65.111 4.75965 65.191 5.27965L65.271 5.75965C65.351 6.51965 65.431 7.23965 65.551 7.95965C65.591 8.43965 65.631 8.95965 65.711 9.51965C65.711 9.71965 65.751 9.91965 65.791 10.1996C65.791 10.2396 65.831 10.3196 65.831 10.3996C65.831 10.6796 65.911 11.1596 66.031 11.4396C66.511 11.5996 67.391 11.5996 68.031 11.5596H68.191C68.351 11.5596 68.511 11.5196 68.631 11.5196H74.671C75.711 11.5996 76.631 11.8796 76.751 13.0396C76.791 13.9596 75.951 13.7996 75.111 13.6796C74.871 13.6396 74.631 13.5996 74.471 13.5996C73.391 13.3996 72.711 13.3996 72.031 13.4396C71.311 13.4796 70.551 13.4796 69.431 13.1996C68.671 13.3996 66.871 13.4796 65.951 13.4796C65.711 14.0796 65.871 14.7996 65.991 15.5996C65.991 15.7596 66.031 15.8796 66.031 16.0396C66.111 16.3196 66.151 16.9596 66.151 17.1996C66.231 17.5996 66.231 18.1996 66.231 18.5596C66.231 18.9196 66.231 19.5196 66.311 19.9196C66.391 20.2796 66.511 20.7196 66.591 21.3196L66.671 21.9596C66.831 22.9996 67.031 24.0796 67.351 25.1996C67.751 26.4396 68.351 27.7196 69.231 28.4796C69.951 28.9196 70.791 29.1596 71.311 29.1996C71.951 29.2396 73.111 29.2396 73.751 29.1196C74.271 29.1596 74.071 30.1996 73.631 30.5196C73.271 30.7196 72.631 30.9596 71.871 30.9196C70.471 30.8396 69.311 30.4796 68.431 29.8796C66.951 28.8796 66.031 26.9996 65.511 25.3196C65.231 24.2396 64.991 22.7996 64.791 21.3996L64.711 20.9996C64.631 20.3596 64.471 19.7196 64.391 19.0796C64.231 18.2796 64.071 17.1996 64.071 16.3196C64.071 15.9996 64.111 15.4796 64.151 15.1596C64.151 14.5996 64.031 13.4796 63.631 13.0796C63.591 13.0396 63.151 13.0396 62.711 13.0396H62.391C62.031 12.9596 61.631 12.8796 61.191 12.8396C60.511 12.7596 59.511 12.5996 58.871 12.3196C58.791 12.3196 58.711 12.2796 58.671 12.2396C58.231 12.0396 57.751 11.7996 57.751 10.8796C57.751 10.4796 58.351 10.4796 58.871 10.4796H59.311C60.031 10.4396 60.791 10.5596 61.471 10.7196C61.511 10.7196 61.591 10.7596 61.631 10.7596C62.431 10.9196 63.151 11.0796 63.951 11.0796C63.831 10.4796 63.791 10.0396 63.791 9.43965C63.791 8.95965 63.791 8.43965 63.711 7.91965C63.671 7.23965 63.551 6.55965 63.391 5.87965C63.271 5.35965 63.151 4.79965 63.071 4.27965ZM85.6504 29.6796C85.6104 29.9596 85.6104 30.6796 85.4104 31.0396L85.3304 31.2396L85.0504 31.8396C84.9704 31.9996 84.6904 32.9996 84.3704 33.3596L84.0104 33.7596L82.8904 34.9196C82.4904 35.3996 81.8504 35.9596 81.3704 36.3196C80.4504 36.9996 78.4104 38.2796 77.9304 38.4396C77.1304 38.7196 76.6504 38.4396 76.4904 37.9996C76.3304 37.5596 76.5304 36.9996 77.2904 36.6796C77.6104 36.6396 78.8104 35.9196 79.6104 35.3196L80.4104 34.7996C81.2504 34.2396 82.1304 33.4796 82.6504 32.6396C83.5304 31.2796 83.8104 29.3996 84.2504 27.8396C84.3304 27.3996 84.4104 26.9596 84.5304 26.5596V26.4396C84.4904 25.5596 84.5704 25.2796 84.5704 24.9196C84.6104 24.2396 84.6104 23.5196 84.6104 22.7596C84.6104 21.4796 84.5704 21.1196 84.3704 19.8796C84.0504 18.5596 83.7304 17.1996 83.7304 15.9196C83.7304 15.0396 83.6504 13.9996 83.5704 13.1996C83.4504 12.9996 83.4104 12.3196 83.6104 12.0796C83.7304 11.9596 84.2904 11.9596 84.5704 11.9996H84.9704C85.0504 12.3996 85.0904 13.0796 85.1304 13.7996C85.2104 14.6396 85.2904 15.5196 85.4904 16.3196C85.5704 16.6396 85.6904 16.9996 85.8104 17.3196L85.9304 17.7196C86.0904 18.2796 86.1704 18.9196 86.2104 19.5596V20.2396C86.1704 20.5996 86.1704 20.8396 86.2104 21.3596C86.2104 21.6396 86.2504 21.8796 86.2504 22.0396C86.2904 22.6396 86.3304 23.2796 86.3304 23.9196C86.3304 24.2396 86.2904 24.5196 86.2904 24.9996C86.2504 25.5196 86.2504 26.0396 86.2504 26.5996L85.6504 29.6796ZM83.2904 9.39965C82.4904 9.27965 82.0504 9.27965 81.6904 8.75965L81.6504 8.55965V8.59965L81.0904 7.99965C80.8904 7.67965 80.7304 7.11965 80.7304 6.43965C80.7304 4.63965 82.4904 2.75965 84.4904 3.23965C85.8104 3.59965 87.0504 5.07965 86.5304 6.27965C86.5304 6.43965 86.4904 6.63965 86.4104 6.75965L86.2504 7.15965C85.8104 8.35965 83.6504 9.43965 83.2904 9.39965ZM85.4504 5.63965C85.4504 5.23965 85.3304 4.71965 84.2504 4.55965C84.2504 4.59965 84.3304 4.75965 84.3704 4.79965C84.4904 4.99965 84.5704 5.23965 84.5704 5.43965C84.6104 5.87965 84.5704 6.43965 84.4904 6.79965C84.4104 6.95965 84.3304 7.35965 84.3304 7.35965C85.1304 6.95965 85.4504 6.19965 85.4504 5.63965ZM98.6779 29.8396C98.8779 29.9596 98.9979 30.1596 98.9979 30.3196C98.9179 30.5196 98.7179 30.7196 98.3979 30.7196C97.8779 30.7596 95.8379 30.2796 95.3979 29.8396V29.8796C95.2779 29.8396 95.1579 29.7196 95.0379 29.6796L94.4379 29.2796C94.0779 29.0796 93.7579 28.8796 93.5579 28.5196H93.5979C93.0779 27.9996 91.8779 26.1596 91.8379 24.5996C91.6779 23.7196 91.5979 22.6396 91.5979 21.7996C91.5979 20.9996 91.6379 20.2396 91.7579 19.3996C91.7979 19.2796 91.7979 19.1996 91.7979 18.9996C91.8779 18.5596 92.1179 17.7996 92.3179 17.3596L92.8779 16.5596C93.1179 16.2796 93.3579 15.9996 93.4379 15.7596C94.1179 14.1996 95.9979 12.6396 97.7579 11.8796C97.9179 11.8796 98.0779 11.8396 98.2379 11.7596L98.4779 11.6796L99.9179 11.4796H99.8779L100.878 11.1596C101.078 10.1996 101.078 9.19965 101.078 8.31965V7.91965C101.078 7.67965 101.078 7.19965 101.118 6.87965C101.118 6.79965 101.158 6.67965 101.158 6.59965C101.198 6.15965 101.238 5.67965 101.158 5.23965V5.03965C101.158 4.95965 101.118 4.87965 101.118 4.79965C101.078 4.03965 101.118 2.79965 101.558 2.51965C102.238 2.15965 102.598 2.79965 102.798 3.27965C102.798 3.35965 102.798 3.39965 102.838 3.43965C102.998 4.15965 103.038 5.43965 102.998 6.19965C102.998 6.31965 102.958 6.51965 102.958 6.67965V7.11965C102.958 8.07965 102.878 9.19965 102.758 10.1196C102.678 10.7996 102.598 11.7196 102.558 12.3996C102.518 13.5196 102.558 14.6396 102.598 15.6796V16.6396C102.598 16.9596 102.638 17.2396 102.638 17.5596C102.638 18.1996 102.598 18.8396 102.558 19.4396C102.558 19.5996 102.558 20.0796 102.518 20.1196C102.478 20.6396 102.438 21.3196 102.558 21.6396L102.638 23.1196C102.598 23.7596 102.398 24.3996 102.238 24.9596L102.118 25.3596C101.998 25.6796 101.878 26.0396 101.798 26.3596C101.598 27.1596 101.518 28.0396 101.438 28.8796C101.398 29.5996 101.358 30.2796 101.278 30.6796H100.878C100.598 30.7196 100.038 30.7196 99.9179 30.5996C99.7179 30.3596 99.7579 29.6796 99.8779 29.4796C99.9579 28.6796 100.038 27.6396 100.038 26.7596C100.038 25.4796 100.358 24.1196 100.678 22.7996C100.878 21.5596 100.918 19.9996 100.918 18.7196C100.918 17.9596 100.918 17.2396 100.878 16.5596C100.798 16.0396 100.798 15.1196 100.838 14.7196V14.2396C100.838 14.0796 100.878 13.8796 100.878 13.7596C100.878 13.4396 100.838 13.1996 100.798 12.9196C100.358 12.9596 99.0379 13.1196 98.5979 13.3196C97.2379 13.7996 95.8379 14.9996 95.2379 16.2396C95.0779 16.5596 94.6379 17.1596 94.3579 17.5596L93.7579 18.2396C93.7579 18.3196 93.7179 18.3996 93.7179 18.4796C93.6779 18.7996 93.5979 19.8396 93.5979 19.5196C93.4779 20.1596 93.3579 20.9996 93.3579 21.5996L93.4779 23.5196C93.5179 24.1596 93.5579 24.3596 93.5579 24.9596C93.6779 26.4796 95.1579 27.7196 96.2379 28.5996C96.5179 28.8796 96.7979 29.0396 97.0779 29.1996L97.7979 29.3596C98.1179 29.5196 98.4379 29.6796 98.6779 29.8396ZM113.805 5.71965C114.765 5.03965 115.765 4.47965 116.685 4.23965C116.725 4.23965 116.765 4.19965 116.845 4.19965L116.365 2.95965L116.045 2.11965C115.885 1.71965 115.725 1.27965 115.685 0.999648C115.565 0.439648 116.565 -0.000353336 117.045 0.359647C117.485 0.679647 118.245 1.79965 118.525 2.83965L119.885 6.67965L121.045 10.6396C121.405 11.9996 121.525 13.3596 121.605 14.4796C121.645 15.1596 121.725 15.7596 121.805 16.1996C122.205 18.5196 122.725 21.7996 122.965 25.2396L123.365 31.2796L123.525 33.8796L123.565 33.9196C123.525 33.9196 123.525 33.9596 123.525 33.9596L123.565 34.5996C123.605 35.1196 123.485 35.4396 123.285 35.5596C123.245 35.7596 123.165 35.9196 123.125 35.9996C122.165 36.9196 121.365 37.3996 120.205 37.8396C119.325 38.1596 118.445 38.2796 117.765 38.1996C117.445 38.1996 116.885 38.1196 116.605 38.0396C116.325 37.9596 116.085 37.9196 115.845 37.9196H115.685L115.365 37.8396C114.485 37.6796 113.885 37.4396 113.445 37.2796L113.165 37.1596C112.805 37.0396 112.245 36.7196 111.925 36.4396L111.685 36.2796C111.445 36.0796 111.125 35.7996 110.645 35.2796V35.3196L109.765 34.5196L109.685 34.3196V34.3596C109.365 33.7996 108.965 33.0396 109.405 32.8396C109.645 32.7596 111.165 32.9996 111.325 33.1596L111.485 33.4396C111.565 33.5996 111.565 33.7196 111.685 33.7596L112.165 34.2796C112.365 34.4796 112.925 35.0396 112.845 34.9996C113.365 35.4396 114.085 35.8796 114.685 36.1196C114.725 36.1196 114.805 36.1596 114.885 36.1596C115.645 36.1196 116.765 36.3196 117.965 36.5996C118.085 36.5996 118.245 36.5596 118.365 36.5596L119.285 36.5196C119.605 36.4396 120.205 36.2796 120.685 36.0396L121.605 35.4796C121.645 35.3596 121.645 35.1596 121.645 34.9596V34.4796C121.605 34.3196 121.565 34.1596 121.565 33.9996L121.605 30.5196C121.165 30.5596 120.365 30.5596 119.685 30.2796C119.285 30.2396 118.485 30.0796 117.645 29.8396C116.645 29.5196 115.485 28.9596 114.725 28.1196V28.1596C113.845 27.5996 112.805 26.9996 111.725 25.8796C110.885 24.9996 110.085 23.8796 109.525 22.4796C109.205 21.6796 108.885 20.6796 108.685 19.5196C108.405 18.2396 108.285 17.0396 108.285 15.9596C108.285 15.1996 108.365 14.4796 108.445 13.8396C108.605 12.7996 108.885 11.9196 109.165 11.1996C109.525 10.2396 110.045 9.47965 110.525 8.95965H110.485C111.205 7.91965 112.485 6.67965 113.805 5.71965ZM118.325 7.95965L117.565 6.07965C117.005 6.15965 115.805 6.59965 114.805 7.11965C113.725 7.71965 112.685 8.79965 111.845 10.2396C111.285 11.3596 110.845 12.2396 110.605 12.8796C110.245 13.7996 110.245 14.0796 110.245 14.6796C110.245 14.8796 110.245 15.2396 110.205 15.5196C110.125 17.2396 110.245 19.9996 111.365 22.3596C111.885 23.5196 112.645 24.8796 113.485 25.6796C114.805 26.3996 116.205 27.1596 117.165 27.5596C118.565 28.0396 119.965 28.3596 120.565 28.3996C120.885 28.4396 121.165 28.4396 121.365 28.5196C121.125 27.2396 120.805 25.3196 120.725 23.7996C120.685 23.5596 120.685 23.1596 120.645 22.7996C120.565 21.6396 120.445 20.0396 120.325 18.9196L120.245 18.0796C120.045 16.3996 119.845 14.3596 119.645 13.0796C119.405 11.6396 118.525 8.51965 118.325 7.95965ZM147.764 16.0396L147.804 15.4396C147.804 13.4396 147.684 11.9196 147.484 10.6396C147.244 9.11965 146.964 7.87965 146.764 6.47965L146.644 5.83965C146.564 5.59965 146.564 5.35965 146.564 5.19965C146.564 4.67965 146.764 4.43965 147.084 4.43965C148.204 4.43965 148.564 5.67965 148.564 6.91965V7.11965C148.564 7.35965 148.644 7.59965 148.644 7.83965L148.884 9.11965C149.204 9.87965 149.364 10.7996 149.444 11.7996C149.564 12.9196 149.604 14.1196 149.724 15.1996L149.604 16.1196V18.1596C149.604 19.0796 149.604 19.9996 149.644 20.8796V21.4396C149.644 21.7196 149.684 22.0396 149.684 22.3596V23.2396C149.684 23.9196 149.604 24.6396 149.604 25.2796L149.684 27.4796C149.684 28.0796 149.244 28.4796 148.564 28.4796C148.164 28.4796 147.724 28.2796 147.764 27.6796L147.804 26.7596C147.604 27.2396 147.324 27.7596 146.924 28.1196L146.404 28.5996L146.204 28.8796C146.204 28.8796 145.924 29.0396 145.444 29.1996C145.124 29.4396 144.644 29.6796 144.124 29.8796C143.404 30.1596 142.644 30.3596 142.044 30.3596L141.884 30.4396H141.604C140.884 30.5996 140.164 30.6796 139.724 30.6796C139.124 30.6796 138.484 30.5596 137.884 30.3596C137.444 30.2396 137.004 30.0396 136.644 29.8796L135.244 29.0796H135.004L134.204 28.4796C133.924 28.1996 133.604 27.9596 133.324 27.7596C133.044 27.5596 132.844 27.3596 132.724 27.1596C132.164 26.5196 131.404 25.1996 131.084 24.3996L130.764 23.9596L130.644 22.8796L130.284 18.7996L130.084 16.2796C129.804 14.3596 129.604 12.1596 129.524 10.2796L129.284 8.31965C129.204 7.87965 129.164 7.19965 129.164 6.99965V6.47965C129.164 5.75965 129.164 4.99965 130.004 4.99965C130.244 4.99965 130.444 5.07965 130.644 5.07965H130.844C130.884 5.51965 131.004 6.19965 131.004 6.79965V7.35965C131.004 8.31965 131.084 9.39965 131.324 10.6796L131.524 12.1196C131.724 13.5196 132.044 15.9596 132.004 16.7996C132.004 17.0796 132.044 17.1996 132.044 17.3196C132.084 18.1996 132.124 18.8396 132.204 19.2396C132.204 19.6396 132.244 19.8396 132.244 19.9996C132.244 20.1596 132.204 20.3196 132.204 20.3996C132.204 20.7196 132.364 20.9996 132.364 21.4796C132.364 22.1996 132.364 22.3996 132.444 22.8396C132.764 23.7196 133.124 24.7996 133.564 25.4396C133.644 25.5196 135.124 26.8796 135.204 26.9196C135.484 27.1596 135.764 27.3596 136.084 27.5596C136.684 27.9196 137.244 28.1996 137.604 28.3596L137.844 28.4796C138.084 28.5996 138.404 28.7596 138.804 28.8796C139.244 28.9996 139.764 29.1196 140.404 29.1196C140.524 29.1196 140.604 29.0796 140.724 29.0796L141.084 28.9596C141.724 28.7196 142.604 28.3996 143.524 28.3196L143.804 28.1596L144.284 27.7996C144.484 27.5996 144.924 27.3196 145.244 27.1196L145.764 26.7996L146.244 26.3196L146.964 25.3996C147.324 24.6396 147.644 23.5996 147.804 22.7996C147.764 22.6796 147.764 22.4796 147.764 22.3996V20.9596C147.764 20.7996 147.724 20.5996 147.724 20.3996V20.3196C147.724 20.1996 147.644 20.1196 147.644 19.7996C147.644 19.3196 147.724 18.9196 147.804 18.6796C147.764 18.3996 147.764 18.0796 147.764 17.7596L147.724 17.4796C147.764 17.1196 147.764 16.7996 147.764 16.4396V16.0396ZM156.723 17.2796L156.643 17.1996C156.483 16.8396 156.283 16.5196 156.043 16.1996L155.803 15.8796C155.563 15.5596 155.283 15.0796 155.083 14.6796C154.763 13.7996 154.603 12.7196 154.603 11.6796C154.603 10.2396 154.883 8.87965 155.323 7.71965C155.443 7.23965 155.563 6.71965 156.003 6.27965C156.603 5.51965 157.283 4.95965 158.003 4.59965C159.163 3.99965 160.443 3.83965 162.003 3.83965C162.203 3.87965 162.483 3.87965 162.923 3.87965C163.643 3.87965 164.403 3.87965 164.683 4.51965C164.963 5.35965 164.203 5.67965 163.643 5.67965C163.243 5.67965 162.763 5.63965 162.443 5.59965C161.763 5.51965 161.003 5.47965 160.203 5.79965C159.003 6.23965 158.083 6.95965 157.483 7.83965C156.483 9.23965 156.123 11.0796 156.323 12.8396C156.563 14.7996 157.963 15.7196 159.523 16.8396C160.523 17.5996 161.723 18.1596 162.843 18.6796C162.883 18.7196 162.963 18.7596 163.003 18.7596L163.243 18.8796L163.683 19.0396L165.523 19.7596C166.563 20.1596 167.243 20.8796 167.683 21.6796C168.243 22.7196 168.403 23.9196 168.403 24.9196C168.363 25.7196 167.723 26.8796 166.843 26.9596C166.803 27.7596 166.363 28.1196 165.843 28.4796V28.4396L165.523 28.7196C164.123 30.0396 162.083 30.5596 160.123 30.6396C159.643 30.7596 158.883 30.8796 158.323 30.8796C157.363 30.8796 156.483 30.5196 156.403 29.1996C157.043 29.2396 157.883 29.2796 158.483 29.2796C159.123 29.2796 159.923 29.2396 160.523 29.1596C162.083 28.9196 163.683 28.3596 164.963 27.1596C165.763 26.3996 166.363 25.3196 166.363 24.2396C166.363 23.6396 166.163 22.9596 165.643 22.3196C165.163 21.7196 164.043 21.0796 163.323 20.7196C163.243 20.6796 163.083 20.5996 162.963 20.4796L162.723 20.3996L161.963 20.1196C161.563 19.9596 161.163 19.7996 160.763 19.5996C160.323 19.3596 159.923 19.1196 159.683 18.7596C159.043 18.7996 158.643 18.5196 158.283 18.1996L157.883 17.8796C157.643 17.7196 157.483 17.5596 157.323 17.4796C157.123 17.3996 157.043 17.3596 156.723 17.2796ZM182.8 4.07965L183.24 3.59965L183.28 3.51965L183.08 2.95965L182.76 2.11965C182.6 1.71965 182.44 1.27965 182.4 0.999648C182.28 0.439648 183.28 -0.000353336 183.76 0.359647C184.2 0.679647 184.96 1.79965 185.24 2.83965L186.6 6.67965L187.76 10.6396C188.12 11.9996 188.24 13.3596 188.32 14.4796C188.36 15.1596 188.44 15.7596 188.52 16.1996C188.84 18.0396 189.24 19.9596 189.48 22.3596C190.12 22.3596 190.76 22.2796 191.36 22.1596C192.12 22.0796 193.12 21.8396 194.24 21.5196C194.56 21.4796 195.08 21.4796 195.68 21.5596C195.84 21.6396 195.96 21.8396 196.08 22.0796C196.2 22.3596 196.28 22.5596 196.28 22.7996L195.72 23.3596C195.16 23.6796 194.84 23.7196 194.64 23.7196C193.68 23.7196 192.68 23.7596 191.64 23.8396L190.56 23.9196L189.96 23.9596C189.84 23.9996 189.72 23.9996 189.64 23.9996C189.64 24.1596 189.64 24.3196 189.68 24.4396L190.08 30.4796L190.28 33.7996C190.36 34.7596 189.92 34.9996 189.32 34.7196C188.64 34.4396 188.36 33.9596 188.28 33.1996L188.36 29.0396C188.36 29.0396 187.8 26.4396 187.52 24.1996C186.64 24.2796 185.76 24.2796 184.84 24.2396C183.92 24.2396 183.04 24.2796 182.12 24.2796H180.16C179.4 24.2796 178.64 24.3196 177.52 24.1996L176.52 24.0796C176.24 24.0796 175.84 23.9996 175.56 23.9996C175.24 23.9996 174.92 23.9596 174.6 23.9196H173.88C173.68 23.9196 173.48 23.9596 173.28 23.9596C173.08 23.9196 172.84 23.9196 172.64 23.9196C172.44 23.9196 172.16 23.8796 171.92 23.8796C171.44 23.1196 171.2 22.6796 171.44 21.8796C171.76 21.3196 172.08 20.6396 172.64 19.8396L172.76 19.5596L174.6 16.7196L175.04 16.0796C175.4 15.4396 175.72 15.2396 176.08 14.5196C176.92 13.2796 177.68 12.2396 178.28 10.9996L179.52 8.63965L180.28 7.95965C180.48 7.47965 180.76 6.95965 181.16 6.35965L181.32 6.15965L181.52 5.83965L182.6 4.39965C182.6 4.35965 182.8 4.11965 182.8 4.07965ZM185.04 7.95965L184.12 5.63965C183.72 6.19965 183.16 6.99965 182.8 7.63965L180.44 11.0796L178.4 14.1196C177.44 16.0796 176.52 17.0396 175.64 18.6796C175.4 18.9996 175.04 19.5596 174.64 20.2396L174.28 20.8396L173.6 22.0796L174.96 22.2396L176.28 22.4396C177.24 22.4796 178.64 22.4796 179.56 22.3196C179.92 22.3596 180.28 22.3996 180.68 22.3996C180.88 22.3996 181.08 22.4396 181.28 22.4396L182.32 22.4796C182.88 22.5196 183.44 22.5596 184 22.5596C184.72 22.5596 185.48 22.5196 186.28 22.4796C186.64 22.4796 187 22.4396 187.4 22.4396C187.4 22.2796 187.36 22.1596 187.36 21.9996C187.28 20.8396 187.16 19.2396 187.04 18.1196L186.96 17.2796C186.76 15.5996 186.56 14.3596 186.36 13.0796C186.12 11.6396 185.24 8.51965 185.04 7.95965ZM203.168 27.3196L201.648 27.2796C200.968 27.2396 200.648 26.7596 200.648 26.2796C200.648 25.7996 200.928 25.3196 201.408 25.0396C201.768 24.8796 202.808 24.5596 202.808 24.5596C202.928 24.5596 203.088 24.5196 203.248 24.4796C203.488 24.4396 203.728 24.3996 203.808 24.3996L204.968 24.4396H206.608C208.128 23.7996 209.768 23.1196 211.288 22.3596C211.768 22.1196 213.448 21.1196 213.648 20.9996L214.048 20.7196C214.168 20.5996 214.448 20.3996 214.688 20.2396H214.648L214.928 19.9996L215.328 19.7996L215.848 19.4796H215.808C216.328 18.9596 217.088 18.0396 217.608 17.1596C217.888 16.6396 218.328 15.7596 218.528 15.2796C218.448 14.8796 218.408 14.4796 218.408 14.2796L218.448 14.0796L218.048 13.0396C218.048 12.9596 218.048 12.7196 218.008 12.5596L217.888 11.9596C217.688 11.4396 217.248 10.7196 216.768 10.0396C216.048 8.99965 215.088 7.99965 214.208 7.35965C214.008 7.15965 213.528 6.75965 213.408 6.67965C213.128 6.43965 212.848 6.15965 212.448 5.83965L211.688 5.11965H211.728C211.408 4.99965 210.728 4.91965 210.208 4.87965H210.008C209.528 4.99965 208.848 4.99965 208.368 5.03965C207.808 5.11965 207.168 5.15965 206.728 5.15965C206.048 5.27965 205.208 5.59965 204.608 5.95965C204.048 6.31965 203.528 6.67965 203.088 7.11965C202.688 7.51965 202.368 7.91965 202.208 8.19965C201.928 8.51965 201.648 9.15965 201.408 9.79965C201.448 10.1196 201.568 10.4796 201.448 10.8396C201.328 11.0396 201.408 11.6396 201.408 11.6396L201.448 12.8796L201.768 14.1596C201.768 14.8396 201.568 15.2396 201.408 15.3596C200.968 15.5996 200.688 15.5596 200.488 15.2396C200.008 14.3196 199.768 13.6796 199.688 13.1996C199.648 12.8396 199.608 12.3596 199.608 11.9196C199.608 11.6396 199.568 11.3996 199.568 11.1996L199.448 10.4396C199.448 10.4396 199.488 9.91965 199.568 9.51965C199.688 8.83965 199.848 8.19965 200.008 7.67965C200.208 7.11965 200.488 6.67965 200.728 6.31965C200.848 6.15965 201.168 5.79965 201.648 5.43965L202.608 4.83965C202.968 4.59965 203.528 4.31965 204.128 4.03965C204.928 3.67965 206.008 3.31965 207.088 3.07965C207.488 2.99965 207.928 2.95965 208.448 2.95965C209.008 2.95965 209.648 2.99965 210.248 3.11965L210.648 3.23965C211.048 3.27965 211.528 3.43965 211.528 3.43965L212.328 3.83965L213.928 4.71965L214.048 4.99965V4.95965L214.608 5.31965L215.608 6.27965H215.568C216.208 6.63965 216.808 7.11965 217.288 7.67965C217.888 8.43965 218.448 9.35965 219.008 10.3596C219.568 11.4796 219.968 12.4796 220.248 13.7196L220.328 14.1196L220.448 14.5996L220.408 14.8796L220.328 15.2796C220.208 16.1596 219.808 17.0796 219.328 17.8396V17.7996C218.888 18.5996 218.448 19.0796 217.968 19.6796L217.728 19.9596C216.888 20.7996 215.768 21.6396 214.768 22.2796L214.408 22.5196L214.168 22.7196C212.728 23.4396 211.048 24.1196 209.568 24.7196L209.448 24.7596L210.168 24.6396C210.728 24.5196 211.368 24.3996 211.888 24.4396C212.288 24.4396 212.688 24.3996 213.088 24.3996C213.088 24.3996 213.528 24.3996 214.528 24.3596H216.128L217.368 24.4396L218.968 24.9996C218.968 24.9996 219.488 25.1196 219.888 25.2796C220.288 25.2796 221.128 25.3196 221.568 25.3196L224.328 25.5596L226.168 25.8796C226.448 26.2796 226.088 26.6796 226.088 26.6796L224.888 27.2796C224.648 27.3596 221.728 27.2796 221.728 27.2796L218.848 26.7596L217.568 26.5996C217.448 26.5996 217.248 26.5596 217.088 26.5196C216.808 26.4796 216.368 26.4396 216.128 26.4396L215.008 26.2396H214.328C213.928 26.2396 213.208 26.2396 212.728 26.1996H211.968C211.648 26.2796 210.808 26.2796 210.128 26.2796C209.808 26.2796 209.408 26.3196 209.088 26.3196H208.608C208.328 26.3596 208.008 26.4796 207.728 26.5196C207.288 26.6396 206.848 26.7196 206.528 26.7196C206.088 26.7196 204.888 27.1196 204.888 27.1196L203.168 27.3196ZM239.714 4.07965L240.154 3.59965L240.194 3.51965L239.994 2.95965L239.674 2.11965C239.514 1.71965 239.354 1.27965 239.314 0.999648C239.194 0.439648 240.194 -0.000353336 240.674 0.359647C241.114 0.679647 241.874 1.79965 242.154 2.83965L243.514 6.67965L244.674 10.6396C245.034 11.9996 245.154 13.3596 245.234 14.4796C245.274 15.1596 245.354 15.7596 245.434 16.1996C245.754 18.0396 246.154 19.9596 246.394 22.3596C247.034 22.3596 247.674 22.2796 248.274 22.1596C249.034 22.0796 250.034 21.8396 251.154 21.5196C251.474 21.4796 251.994 21.4796 252.594 21.5596C252.754 21.6396 252.874 21.8396 252.994 22.0796C253.114 22.3596 253.194 22.5596 253.194 22.7996L252.634 23.3596C252.074 23.6796 251.754 23.7196 251.554 23.7196C250.594 23.7196 249.594 23.7596 248.554 23.8396L247.474 23.9196L246.874 23.9596C246.754 23.9996 246.634 23.9996 246.554 23.9996C246.554 24.1596 246.554 24.3196 246.594 24.4396L246.994 30.4796L247.194 33.7996C247.274 34.7596 246.834 34.9996 246.234 34.7196C245.554 34.4396 245.274 33.9596 245.194 33.1996L245.274 29.0396C245.274 29.0396 244.714 26.4396 244.434 24.1996C243.554 24.2796 242.674 24.2796 241.754 24.2396C240.834 24.2396 239.954 24.2796 239.034 24.2796H237.074C236.314 24.2796 235.554 24.3196 234.434 24.1996L233.434 24.0796C233.154 24.0796 232.754 23.9996 232.474 23.9996C232.154 23.9996 231.834 23.9596 231.514 23.9196H230.794C230.594 23.9196 230.394 23.9596 230.194 23.9596C229.994 23.9196 229.754 23.9196 229.554 23.9196C229.354 23.9196 229.074 23.8796 228.834 23.8796C228.354 23.1196 228.114 22.6796 228.354 21.8796C228.674 21.3196 228.994 20.6396 229.554 19.8396L229.674 19.5596L231.514 16.7196L231.954 16.0796C232.314 15.4396 232.634 15.2396 232.994 14.5196C233.834 13.2796 234.594 12.2396 235.194 10.9996L236.434 8.63965L237.194 7.95965C237.394 7.47965 237.674 6.95965 238.074 6.35965L238.234 6.15965L238.434 5.83965L239.514 4.39965C239.514 4.35965 239.714 4.11965 239.714 4.07965ZM241.954 7.95965L241.034 5.63965C240.634 6.19965 240.074 6.99965 239.714 7.63965L237.354 11.0796L235.314 14.1196C234.354 16.0796 233.434 17.0396 232.554 18.6796C232.314 18.9996 231.954 19.5596 231.554 20.2396L231.194 20.8396L230.514 22.0796L231.874 22.2396L233.194 22.4396C234.154 22.4796 235.554 22.4796 236.474 22.3196C236.834 22.3596 237.194 22.3996 237.594 22.3996C237.794 22.3996 237.994 22.4396 238.194 22.4396L239.234 22.4796C239.794 22.5196 240.354 22.5596 240.914 22.5596C241.634 22.5596 242.394 22.5196 243.194 22.4796C243.554 22.4796 243.914 22.4396 244.314 22.4396C244.314 22.2796 244.274 22.1596 244.274 21.9996C244.194 20.8396 244.074 19.2396 243.954 18.1196L243.874 17.2796C243.674 15.5996 243.474 14.3596 243.274 13.0796C243.034 11.6396 242.154 8.51965 241.954 7.95965ZM284.523 21.0796C284.363 21.7596 284.003 22.3196 283.643 22.8796C283.483 23.0396 283.323 23.2396 283.163 23.3596L283.003 23.5596C282.843 23.6796 282.523 23.9996 282.203 24.0796C282.123 24.1596 282.043 24.1996 281.963 24.2396C281.483 24.5996 280.243 24.9596 279.803 25.1596L278.923 25.3596C278.723 25.4396 278.403 25.4796 278.043 25.5196C277.883 25.8796 277.603 26.1196 277.163 26.1196C276.843 26.1196 276.443 25.9596 276.323 25.2796C275.483 25.2796 274.563 25.3596 273.563 25.4396C272.403 25.5196 271.203 25.6396 270.283 25.6396C269.563 25.6396 269.083 25.5996 268.803 25.5196L268.563 25.3996C267.563 25.1996 266.963 24.9596 266.603 24.6796L265.883 24.1196L265.403 23.8396C264.963 23.3596 264.523 22.7596 264.323 22.3196C264.083 21.9196 263.963 21.4796 263.963 21.0396C263.963 20.9596 264.003 20.8396 264.003 20.7596C264.043 20.6796 264.043 20.5996 264.043 20.4796L264.203 19.8796C264.403 18.7996 264.763 17.7596 265.603 16.6396C266.003 16.0796 266.563 15.4796 267.243 14.9196L267.283 14.8796C267.363 14.7596 267.803 14.2396 267.803 14.2396L269.163 13.2396L269.363 13.1996L269.803 12.9596L270.443 12.7196C270.923 12.4396 271.563 12.2396 272.283 12.0796C272.843 11.9596 273.483 11.9196 274.083 11.9196C274.763 11.9196 275.363 11.9596 276.083 12.1196L276.323 12.1996C276.203 11.5196 276.083 10.8796 275.843 10.2796L275.883 10.3996L275.603 10.0796C275.483 9.75965 275.323 9.55965 275.203 9.43965L275.083 9.27965L274.683 8.91965L274.603 8.87965C273.883 8.75965 273.403 8.63965 273.043 8.47965H273.083L272.523 8.31965C272.283 8.23965 272.163 8.19965 272.083 8.19965C271.723 8.19965 271.283 8.27965 270.883 8.35965C270.763 8.35965 270.643 8.39965 270.523 8.39965C270.163 8.47965 269.723 8.55965 269.523 8.67965L269.243 8.75965H269.123C268.683 8.75965 268.243 8.31965 268.243 7.83965C268.243 7.19965 269.123 6.87965 270.043 6.63965C270.683 6.51965 271.403 6.43965 271.563 6.43965C271.603 6.47965 272.003 6.51965 272.243 6.55965C272.323 6.55965 272.443 6.59965 272.523 6.59965C272.603 6.59965 272.723 6.63965 272.803 6.63965C273.043 6.67965 273.283 6.71965 273.563 6.71965L274.203 6.91965C274.443 6.95965 274.683 7.03965 274.923 7.11965C275.123 7.15965 275.363 7.35965 275.643 7.51965L275.923 7.71965L276.323 7.95965C276.963 8.51965 277.363 9.35965 277.683 10.0396L277.843 10.6796C278.003 11.2396 278.203 11.9996 278.203 12.8396V13.1196C278.363 13.1596 278.483 13.1596 278.563 13.1996L278.803 13.9996C278.443 14.3196 278.363 14.6396 278.323 14.8796C278.323 15.0396 278.283 15.1596 278.283 15.2796C278.283 15.5596 278.283 15.8396 278.243 15.9596V16.3996L278.323 16.7196C278.323 16.9196 278.363 17.1196 278.363 17.2796V18.5996C278.363 18.8396 278.323 19.1196 278.283 19.3596C278.243 19.5996 278.203 19.9596 278.203 19.9596C278.203 20.3596 278.243 20.6796 278.283 20.9996C278.323 21.3196 278.363 21.6796 278.363 22.1196C278.363 22.2796 278.283 22.5996 278.203 22.7996C278.283 23.0396 278.363 23.4396 278.363 23.7596C278.803 23.5596 279.323 23.3996 279.643 23.3196L280.843 23.0396L281.563 22.4396L282.163 21.7996C282.483 21.1196 282.723 20.5596 282.883 20.3596L283.283 19.5996C283.283 19.5996 283.523 19.0796 283.523 18.8796C283.603 18.5196 283.763 18.1996 283.843 17.9996C284.083 17.0396 284.283 16.0396 284.403 15.2796C284.403 14.7596 284.443 14.2396 284.483 13.8396C284.483 13.3196 284.483 12.7996 284.443 12.1996L284.363 11.9996C284.283 11.2796 284.083 10.5596 283.843 9.83965C283.603 9.07965 283.283 8.27965 282.923 7.51965L282.043 6.39965L281.443 5.83965C281.443 5.83965 280.763 5.47965 280.523 5.39965C280.003 5.11965 278.803 4.83965 278.643 4.67965L278.043 4.15965L277.683 3.99965C276.363 3.83965 275.083 3.31965 274.363 3.07965C274.283 3.07965 274.203 3.03965 274.123 3.03965C272.203 2.99965 270.283 3.43965 268.803 3.95965C267.963 3.99965 267.083 4.19965 266.323 4.39965C265.323 4.67965 264.523 5.03965 264.283 5.15965L263.683 5.63965C263.683 5.63965 263.163 6.03965 263.083 6.23965C262.723 6.71965 262.323 6.99965 262.123 7.15965L261.723 7.47965C260.963 8.71965 259.963 10.5596 259.523 12.1996C259.323 13.0796 258.803 14.6796 258.803 15.3596V16.5996C258.883 17.7596 259.043 19.1596 259.243 20.3596L259.443 21.4396L259.723 22.5596L259.963 23.0396C260.043 23.2796 260.003 23.4796 260.003 23.6796C260.123 24.1596 260.243 24.5596 260.443 24.9196C260.523 25.1196 260.643 25.4396 260.883 25.8396L262.003 27.2396C262.243 27.4396 262.643 27.6796 263.083 27.8796C263.923 28.2796 264.923 28.6796 265.283 28.9996C265.843 29.4796 266.443 29.5596 267.003 29.7596C267.723 29.9596 268.163 30.1196 268.483 30.1596C268.723 30.2396 269.003 30.2796 269.523 30.3196L269.643 30.3996C270.643 30.5596 272.363 30.4396 273.123 30.2796C274.123 30.0396 276.403 29.4396 277.243 29.1196L278.283 28.5196L279.323 27.7596C279.443 27.7996 279.763 28.5996 279.723 28.8796L279.563 29.0796C279.483 29.4796 279.003 30.0796 278.683 30.1996C278.683 30.1996 278.563 30.2796 278.443 30.3196L278.203 30.8396C278.083 31.0796 277.723 31.0396 277.323 30.9996L275.763 31.6396L275.283 31.7596L273.843 32.3196C273.243 32.3596 272.363 32.3996 272.283 32.3996L270.923 32.5996L269.123 32.1196L268.683 32.0796L267.843 32.1196L267.243 31.7996L266.763 31.8396C266.563 31.8796 266.363 31.5196 266.203 31.1996L265.043 31.3196L264.723 30.9996L262.763 29.9196C262.083 29.8796 261.083 29.3196 261.003 29.2796L259.843 28.2796L259.203 26.5196L259.043 26.1596L258.483 25.4396L258.363 24.5596L258.123 23.7996C257.883 23.1196 257.683 22.5196 257.683 22.3996C257.203 20.1996 257.203 17.9196 257.203 16.6796C257.163 15.9996 257.083 15.1996 257.123 14.3196C257.163 13.1996 257.483 11.9596 257.843 10.8396L258.283 9.43965L258.643 8.91965C258.843 8.79965 258.883 8.63965 258.963 8.55965C259.403 7.31965 260.083 6.67965 261.003 5.59965C261.203 5.27965 261.523 4.91965 261.523 4.91965C261.763 4.79965 262.283 4.43965 262.523 4.23965L263.643 3.39965H263.923L264.443 3.03965C265.403 2.71965 266.323 2.55965 267.283 2.55965L267.563 2.43965L267.883 2.31965L268.923 2.19965C270.723 1.51965 271.883 1.43965 273.043 1.43965C273.603 1.43965 274.403 1.51965 275.363 1.71965H275.683L275.843 1.79965C276.483 1.95965 277.123 2.15965 277.803 2.39965C278.483 2.55965 279.883 2.75965 280.723 3.19965C281.083 3.39965 281.523 3.63965 281.523 3.63965C281.683 3.87965 282.123 4.23965 282.363 4.43965L283.643 5.35965L283.723 5.63965L284.123 6.15965L284.923 7.31965L285.123 7.79965C285.283 8.23965 285.483 8.87965 285.683 9.59965C285.883 10.4396 286.083 11.3996 286.083 12.2396C286.083 12.6796 286.083 13.0796 286.043 13.4796L286.163 14.0796L285.923 15.2396C285.963 15.8396 286.083 16.3196 286.083 16.7996C286.083 17.3196 286.043 17.8396 285.763 18.4796L285.243 19.7996C285.043 20.0796 284.763 20.5996 284.523 21.0796ZM269.243 23.7996H269.323C269.483 23.8396 270.203 23.8396 271.243 23.8396H272.723L275.203 23.6796C275.723 23.6396 276.163 23.5996 276.483 23.5196V23.2796C276.563 23.0396 276.603 22.3596 276.603 21.9996C276.523 20.3596 276.523 18.2796 276.523 16.6396V16.2796C276.523 16.0796 276.483 15.8396 276.483 15.5996V14.2396C276.443 14.2396 276.283 14.1596 276.243 14.1596L275.403 13.9196C275.323 13.9196 275.123 13.8396 275.083 13.8396C274.723 13.7196 274.363 13.6396 274.083 13.6396C273.483 13.6396 272.883 13.7596 272.243 13.9596C271.323 14.2396 270.403 14.6396 269.643 15.1196L269.483 15.2796C269.243 15.4796 268.803 15.9196 268.483 16.1596L268.123 16.4396C267.803 16.9196 267.203 17.7996 266.683 18.3996C266.243 19.0796 266.003 19.9996 266.003 20.6396C266.003 21.1996 266.163 21.5996 266.483 22.1196L267.243 22.8796L267.563 23.1596C267.883 23.3996 268.683 23.7996 269.243 23.7996ZM296.227 5.71965C297.187 5.03965 298.187 4.47965 299.107 4.23965C299.147 4.23965 299.187 4.19965 299.267 4.19965L298.787 2.95965L298.467 2.11965C298.307 1.71965 298.147 1.27965 298.107 0.999648C297.987 0.439648 298.987 -0.000353336 299.467 0.359647C299.907 0.679647 300.667 1.79965 300.947 2.83965L302.307 6.67965L303.467 10.6396C303.827 11.9996 303.947 13.3596 304.027 14.4796C304.067 15.1596 304.147 15.7596 304.227 16.1996C304.627 18.5196 305.147 21.7996 305.387 25.2396L305.787 31.2796L305.947 33.8796L305.987 33.9196C305.947 33.9196 305.947 33.9596 305.947 33.9596L305.987 34.5996C306.027 35.1196 305.907 35.4396 305.707 35.5596C305.667 35.7596 305.587 35.9196 305.547 35.9996C304.587 36.9196 303.787 37.3996 302.627 37.8396C301.747 38.1596 300.867 38.2796 300.187 38.1996C299.867 38.1996 299.307 38.1196 299.027 38.0396C298.747 37.9596 298.507 37.9196 298.267 37.9196H298.107L297.787 37.8396C296.907 37.6796 296.307 37.4396 295.867 37.2796L295.587 37.1596C295.227 37.0396 294.667 36.7196 294.347 36.4396L294.107 36.2796C293.867 36.0796 293.547 35.7996 293.067 35.2796V35.3196L292.187 34.5196L292.107 34.3196V34.3596C291.787 33.7996 291.387 33.0396 291.827 32.8396C292.067 32.7596 293.587 32.9996 293.747 33.1596L293.907 33.4396C293.987 33.5996 293.987 33.7196 294.107 33.7596L294.587 34.2796C294.787 34.4796 295.347 35.0396 295.267 34.9996C295.787 35.4396 296.507 35.8796 297.107 36.1196C297.147 36.1196 297.227 36.1596 297.307 36.1596C298.067 36.1196 299.187 36.3196 300.387 36.5996C300.507 36.5996 300.667 36.5596 300.787 36.5596L301.707 36.5196C302.027 36.4396 302.627 36.2796 303.107 36.0396L304.027 35.4796C304.067 35.3596 304.067 35.1596 304.067 34.9596V34.4796C304.027 34.3196 303.987 34.1596 303.987 33.9996L304.027 30.5196C303.587 30.5596 302.787 30.5596 302.107 30.2796C301.707 30.2396 300.907 30.0796 300.067 29.8396C299.067 29.5196 297.907 28.9596 297.147 28.1196V28.1596C296.267 27.5996 295.227 26.9996 294.147 25.8796C293.307 24.9996 292.507 23.8796 291.947 22.4796C291.627 21.6796 291.307 20.6796 291.107 19.5196C290.827 18.2396 290.707 17.0396 290.707 15.9596C290.707 15.1996 290.787 14.4796 290.867 13.8396C291.027 12.7996 291.307 11.9196 291.587 11.1996C291.947 10.2396 292.467 9.47965 292.947 8.95965H292.907C293.627 7.91965 294.907 6.67965 296.227 5.71965ZM300.747 7.95965L299.987 6.07965C299.427 6.15965 298.227 6.59965 297.227 7.11965C296.147 7.71965 295.107 8.79965 294.267 10.2396C293.707 11.3596 293.267 12.2396 293.027 12.8796C292.667 13.7996 292.667 14.0796 292.667 14.6796C292.667 14.8796 292.667 15.2396 292.627 15.5196C292.547 17.2396 292.667 19.9996 293.787 22.3596C294.307 23.5196 295.067 24.8796 295.907 25.6796C297.227 26.3996 298.627 27.1596 299.587 27.5596C300.987 28.0396 302.387 28.3596 302.987 28.3996C303.307 28.4396 303.587 28.4396 303.787 28.5196C303.547 27.2396 303.227 25.3196 303.147 23.7996C303.107 23.5596 303.107 23.1596 303.067 22.7996C302.987 21.6396 302.867 20.0396 302.747 18.9196L302.667 18.0796C302.467 16.3996 302.267 14.3596 302.067 13.0796C301.827 11.6396 300.947 8.51965 300.747 7.95965ZM317.466 6.47965H317.306C316.906 6.47965 316.506 6.07965 316.506 5.63965C316.506 5.03965 317.626 4.63965 318.746 4.39965C319.706 4.19965 320.666 4.07965 320.866 4.07965C321.146 4.07965 321.626 4.19965 322.146 4.31965C322.586 4.39965 323.066 4.47965 323.546 4.47965L324.346 4.75965C324.706 4.83965 325.146 4.91965 325.466 5.07965C325.906 5.19965 326.306 5.51965 326.786 5.83965L327.426 6.27965C328.146 6.91965 328.666 7.95965 329.106 8.83965C329.106 9.35965 329.826 11.1196 329.826 12.7996C329.826 13.0396 329.786 13.2796 329.706 13.4396L330.426 13.7196L330.546 14.3196C330.186 14.6796 330.066 15.1596 330.026 15.6396C329.946 16.1996 329.986 16.7596 329.866 17.0796C329.866 17.1996 329.906 17.3596 329.906 17.4796C329.906 17.6396 329.866 17.7596 329.866 17.8396L329.986 18.3196C330.026 18.8796 330.066 19.3596 330.066 19.8396V20.9996C330.066 21.5596 329.786 22.6796 329.826 23.0396C329.826 24.1196 330.066 24.9596 330.066 26.0396C330.066 26.3596 329.946 26.7596 329.706 27.0396C330.066 27.3996 330.066 27.8796 330.066 28.2796C329.986 29.1596 329.946 31.2796 328.826 31.2796C328.466 31.2796 328.066 30.9996 328.066 30.0796L327.986 30.1196C325.506 30.1196 321.586 30.5996 318.946 30.5996C318.026 30.5996 317.346 30.5596 316.986 30.4396L316.786 30.3196C316.746 30.2796 316.666 30.2396 316.626 30.2396C315.266 29.9596 314.426 29.7196 313.986 29.3596L312.906 28.5196L312.306 28.1596C311.746 27.5196 311.226 26.7996 310.866 26.1196C310.586 25.5596 310.426 25.0396 310.426 24.5196C310.426 24.2396 310.506 24.0796 310.506 23.7996L310.746 22.8796C311.106 20.6796 312.026 18.5596 314.946 16.0796L315.146 15.8396C315.186 15.7196 315.706 15.1196 315.706 15.1196L317.546 13.7596H317.826L318.306 13.4796L319.386 13.0396C320.066 12.6396 320.946 12.3596 321.946 12.1596C322.746 11.9996 323.586 11.9196 324.426 11.9196C325.306 11.9196 326.106 11.9996 326.986 12.1996C327.106 12.1996 327.226 12.2796 327.346 12.2796L328.186 12.4396C327.986 11.3196 327.786 10.1196 327.306 8.95965L326.906 8.47965C326.666 7.83965 326.346 7.59965 326.226 7.39965L325.626 6.83965L325.306 6.63965C324.426 6.51965 323.706 6.31965 323.106 6.11965C322.426 5.91965 321.906 5.71965 321.546 5.71965C320.746 5.71965 319.946 5.83965 319.186 5.99965C318.586 6.11965 317.986 6.31965 317.466 6.47965ZM317.466 28.9196C317.706 28.9596 318.786 28.9596 320.346 28.9596H322.466L325.986 28.7196C326.906 28.6796 327.746 28.5596 328.226 28.4396L328.306 27.7996C328.386 27.3996 328.466 26.3596 328.466 25.8396C328.346 23.3996 328.346 20.6396 328.346 18.1996V17.6796C328.346 17.0396 328.306 16.3996 328.306 15.7596C328.306 15.3996 328.306 14.8796 328.346 14.5196C328.146 14.3996 327.826 14.2796 327.586 14.1996C327.066 14.0796 326.546 13.9196 326.026 13.7596C325.466 13.5996 324.906 13.4796 324.386 13.4796C323.506 13.4796 322.586 13.6396 321.666 13.9196C320.306 14.3196 318.906 14.9596 317.826 15.6396L317.466 15.9196C317.026 16.3596 316.546 16.8396 316.186 17.1196L315.626 17.5596C315.146 18.2796 314.226 19.5196 313.466 20.4396C312.706 21.5196 312.426 22.8796 312.426 23.9196C312.426 24.8396 312.626 25.4396 313.106 26.3196L313.226 26.3996C313.506 26.6396 314.066 27.1996 314.306 27.4396L314.866 27.8796C315.346 28.2796 316.626 28.9196 317.466 28.9196ZM350.148 16.1196V15.8796C350.148 14.9596 349.708 14.0396 348.788 11.9996C348.708 11.8796 348.588 11.5996 348.548 11.4796C347.828 10.3196 347.188 9.67965 346.668 9.19965L346.388 8.95965C345.228 7.99965 344.828 7.83965 344.468 7.75965C344.068 7.67965 343.548 7.67965 343.308 7.67965L342.348 8.35965L341.348 8.95965C340.868 9.27965 340.308 9.99965 339.788 10.7996L339.548 11.1196C339.228 11.4396 339.188 11.9596 339.228 12.6396C339.108 12.9996 338.988 13.5996 338.868 14.2396C338.868 14.2796 338.828 14.3596 338.828 14.3996V14.6396C338.708 15.3996 338.588 16.1196 338.628 16.4796C338.628 16.4796 338.628 16.7596 338.588 17.1196C338.548 17.4796 338.428 17.9196 338.308 18.2396V20.1196L338.428 24.1996L338.308 26.9196C338.348 26.9996 338.428 27.1596 338.468 27.1596L338.628 27.5196L338.668 28.1996L338.548 28.8796C338.548 29.2796 338.508 30.2796 338.468 30.5596C338.308 31.2796 337.348 31.1196 337.348 31.1196C337.348 31.1196 336.908 30.9196 336.628 30.4396C336.628 30.4396 336.348 29.6396 336.348 29.0396V24.9196C336.348 24.5196 336.388 23.9596 336.428 23.2796V22.9596L336.628 15.5996L336.828 14.2396C336.868 14.0396 336.868 13.9596 336.868 13.9196L336.988 13.1596C337.148 12.3596 337.268 11.6796 337.268 11.2796C337.268 10.9596 337.948 9.91965 338.788 8.99965L339.708 8.15965L340.028 7.99965L340.508 7.59965L340.908 7.31965C341.228 7.11965 341.748 6.75965 342.388 6.47965C342.948 6.23965 343.588 5.99965 344.228 5.95965C345.628 5.95965 347.188 7.27965 349.148 9.15965C349.668 9.67965 350.068 10.1596 350.308 10.5596C350.388 10.0396 350.548 9.27965 350.748 8.91965C351.228 8.27965 351.868 7.47965 352.748 6.63965C353.428 5.99965 354.628 5.15965 355.428 4.75965C356.668 3.99965 357.588 3.51965 358.828 3.51965C359.628 3.51965 360.388 3.71965 361.108 3.99965C362.108 4.39965 362.948 4.91965 363.508 5.23965L363.788 5.39965C365.468 6.47965 367.308 9.59965 368.268 11.2396L368.428 11.7996L368.748 12.8396V12.7996C369.268 14.3196 369.828 16.2396 370.108 18.0396L370.188 20.9996C370.188 23.5996 370.148 26.3996 370.108 26.9996C369.948 28.9196 369.548 30.7996 369.188 31.4796C369.068 32.3196 368.468 32.6796 367.948 32.3596C367.468 32.1596 367.428 30.8796 367.428 30.8796C367.668 29.9596 367.868 28.8396 367.988 26.5596V26.0796C367.988 25.5996 368.028 24.8396 368.028 23.9596V21.8396C368.028 21.0796 368.068 20.2796 368.068 19.5596V17.7196C367.828 15.4396 366.868 13.0796 365.908 11.1996C365.108 9.75965 364.228 8.35965 363.588 7.55965C362.428 6.39965 361.108 6.03965 360.228 5.79965C360.148 5.79965 360.108 5.75965 359.308 5.51965C358.948 5.43965 358.028 5.47965 357.588 5.51965C356.748 5.75965 355.828 6.27965 355.308 6.67965L354.748 7.07965C354.468 7.19965 353.948 7.95965 353.628 8.55965L352.788 10.2396L352.628 10.5196C352.468 10.9196 352.348 11.7196 352.268 12.4396C352.148 13.3996 352.108 14.3196 352.108 14.6796C352.108 14.8796 352.148 15.1996 352.228 15.5996L352.268 15.7596C352.428 16.3996 352.548 17.6796 352.428 18.5596V20.0396C352.428 20.1196 352.388 20.2396 352.388 20.3196L352.428 20.7596L352.388 21.1596C352.388 21.3596 352.348 21.7996 352.228 22.0796C352.348 22.2796 352.308 22.7196 352.268 23.0796C352.268 23.1996 352.228 23.4396 352.228 23.5196C352.188 23.7596 352.148 23.9996 352.188 24.1596C352.188 24.9196 352.188 25.6796 352.148 26.3996C352.108 27.1196 352.068 27.9596 352.108 28.6796L352.228 29.2796C352.308 29.9196 352.388 30.5196 352.228 30.9996C351.948 31.6396 350.428 31.4796 350.148 30.9196C350.068 30.5996 350.028 29.8796 350.108 29.4396C350.108 29.3596 350.148 29.1996 350.148 29.1196C350.108 28.6796 350.108 28.0796 350.108 27.6396C350.108 26.9596 350.108 26.2396 350.148 25.5596C350.148 25.3596 350.188 24.9596 350.188 24.7596V23.1196L350.148 20.8396V19.2396C350.148 18.1996 350.108 17.1596 350.148 16.1196ZM377.606 13.3596V12.5996C377.606 11.4396 379.486 11.3196 379.526 12.4396C379.526 12.6796 379.446 13.5596 379.446 13.5596V13.7596C379.446 13.8396 379.486 13.8796 379.486 13.9196L379.326 15.1996L379.206 16.0796C379.206 16.1996 379.206 16.3996 379.246 16.5196L379.126 17.3196C379.126 17.4796 379.086 17.5996 379.086 17.7596C379.046 17.8796 379.046 18.1196 379.046 18.1996C379.086 18.4796 379.206 19.4796 379.046 19.7196C378.926 19.9996 378.926 20.6796 378.926 20.6796L378.846 20.7996C378.846 20.7996 378.846 21.5996 378.926 22.1596V22.7996C378.926 23.0796 378.846 23.8396 378.846 23.8396L378.726 25.0396C378.726 25.1996 378.766 25.3596 378.806 25.5196L378.926 26.0796V27.1996L379.286 28.1596C379.286 28.1596 379.166 28.9596 379.166 29.3196C379.166 29.3596 379.166 29.4396 379.126 29.4796H379.206L378.806 30.7996L378.326 30.9596C377.886 31.1596 377.326 30.5996 377.326 30.5996C377.326 30.5996 376.966 29.2796 376.926 29.1196C376.846 28.9196 376.846 28.4796 376.846 28.4796L377.046 27.5596L377.166 26.9196L377.046 26.4796C377.006 26.3196 376.966 26.1996 376.966 25.9996V22.3996C376.966 22.0796 377.126 19.7196 377.126 19.7196L377.046 19.5596C377.046 19.1996 377.086 18.3196 377.166 17.8396C377.206 17.3596 377.246 16.6396 377.246 16.4396L377.366 14.7196L377.606 13.3596ZM378.486 9.39965C377.686 9.27965 377.246 9.27965 376.886 8.75965L376.846 8.55965V8.59965L376.286 7.99965C376.086 7.67965 375.926 7.11965 375.926 6.43965C375.926 4.63965 377.686 2.75965 379.686 3.23965C381.006 3.59965 382.246 5.07965 381.726 6.27965C381.726 6.43965 381.686 6.63965 381.606 6.75965L381.446 7.15965C381.006 8.35965 378.846 9.43965 378.486 9.39965ZM380.646 5.63965C380.646 5.23965 380.526 4.71965 379.446 4.55965C379.446 4.59965 379.526 4.75965 379.566 4.79965C379.686 4.99965 379.766 5.23965 379.766 5.43965C379.806 5.87965 379.766 6.43965 379.686 6.79965C379.606 6.95965 379.526 7.35965 379.526 7.35965C380.326 6.95965 380.646 6.19965 380.646 5.63965ZM391.313 19.8796C391.353 20.1196 391.393 20.5596 391.273 20.9196C391.433 21.1996 391.433 21.7196 391.473 22.1996V22.3596C391.473 22.5996 391.473 22.8396 391.513 22.9996C391.593 23.7596 391.673 24.5196 391.713 25.2396C391.753 25.9596 391.793 26.7596 391.913 27.4796L392.073 28.0396C392.233 28.6396 392.353 29.1996 392.233 29.7196C392.033 30.4396 390.793 30.3596 390.433 29.8396C390.273 29.4796 390.193 28.8796 390.233 28.3996V28.0796C390.033 26.7596 389.913 25.0796 389.833 23.7196C389.673 21.8796 389.473 20.0396 389.233 18.2396L389.073 16.9596C388.793 14.6796 388.553 12.2796 388.433 9.99965L388.273 8.51965L388.193 7.71965C388.073 7.19965 388.073 6.47965 388.033 5.95965C387.993 5.51965 388.033 4.59965 388.313 4.19965C388.513 3.91965 388.993 3.95965 389.313 4.03965C389.433 4.07965 389.553 4.11965 389.753 4.11965C389.833 4.79965 389.873 5.67965 389.913 6.43965V6.63965C389.953 7.43965 389.993 8.23965 390.073 9.03965C390.193 10.0396 390.353 11.0796 390.513 12.1196C390.753 13.5596 390.953 15.3196 391.033 16.7596C391.073 16.9996 391.073 17.3996 391.073 17.5596C391.113 18.2396 391.153 18.8796 391.313 19.5596V19.8796ZM405.226 30.2396C405.386 30.9196 405.226 31.5996 404.866 32.1996C404.826 32.4396 404.706 32.7996 404.546 32.9596C403.426 34.3596 399.866 34.7596 398.866 33.0396C398.346 32.8796 398.066 32.5596 397.946 32.1996L397.626 30.9996C397.346 29.9996 397.746 29.1996 398.506 28.6396C398.666 28.2396 398.986 27.7596 399.306 27.4796C399.906 26.9196 400.786 26.7196 401.626 26.8796C402.186 26.9996 402.666 27.1596 403.026 27.3996C403.546 27.5596 403.866 27.8396 404.186 28.1596C404.826 28.5596 405.226 29.2796 405.226 30.2396ZM399.866 28.5996C400.466 28.6396 401.906 28.8796 402.266 29.3196C402.506 29.5196 402.706 29.7996 402.826 30.1196C402.866 30.3596 402.906 30.6796 402.866 30.9996C402.786 31.3196 402.506 31.5996 401.946 31.8796C401.546 32.1196 401.066 32.2796 400.626 32.3596L400.746 32.4396C401.306 32.9196 402.266 32.2396 402.786 31.9996C402.906 31.9196 403.226 31.9596 403.306 32.0796C403.786 31.7196 404.026 31.1996 404.066 30.5596C404.066 30.2396 404.066 29.9596 403.986 29.6796C403.866 29.3196 403.706 29.0796 403.506 28.8396C403.226 28.5596 402.866 28.4396 402.546 28.3196C402.186 28.2396 401.706 27.9196 401.106 27.9596C400.786 27.9596 400.266 28.2396 399.866 28.5996ZM402.226 30.7996C402.106 30.9196 401.906 30.8396 401.786 30.9196C401.546 31.0396 401.346 31.2396 401.106 31.3196C400.906 31.3596 400.786 31.3196 400.586 31.3196C400.426 31.3196 400.226 31.4396 400.106 31.4396L400.226 31.8796C400.466 31.8796 400.826 31.7996 401.186 31.6396L401.826 31.3996C402.066 31.3196 402.186 30.9596 402.226 30.7996ZM399.066 30.7196V30.3196C398.986 30.5196 398.906 30.7596 398.866 30.9596C398.946 31.7996 399.426 32.2796 400.066 32.5596C399.986 32.4796 399.906 32.3996 399.866 32.2796L399.626 32.1996C399.146 31.7596 399.066 31.2796 399.066 30.7196ZM409.573 17.3196C409.453 16.6796 409.613 15.9596 409.733 15.3996C409.733 15.2396 409.813 14.5596 409.813 14.3996L409.933 13.7196C410.013 13.2396 410.453 12.2396 410.733 11.7596C410.733 11.6796 410.773 11.3596 410.893 11.1196C411.013 10.5196 411.453 9.55965 411.933 8.99965L412.373 8.39965L412.813 7.59965L413.173 7.31965L413.733 6.75965L414.093 6.55965C414.533 6.27965 415.013 5.63965 415.813 5.47965L417.493 5.19965C417.653 5.19965 417.773 5.15965 417.973 5.11965C418.293 5.11965 418.613 5.11965 418.973 5.03965C419.613 4.91965 420.373 4.87965 421.013 4.91965L421.373 4.99965L421.973 5.07965L422.493 5.27965L423.053 5.47965L423.733 5.87965C424.173 6.03965 424.453 6.31965 425.173 6.87965L425.933 7.55965L426.493 8.15965C426.893 8.43965 427.293 8.71965 427.533 8.95965L427.933 9.55965L428.333 10.2396C428.493 10.3996 428.693 10.7996 428.813 10.9996C428.853 11.1196 428.933 11.2796 429.053 11.3596C429.413 11.5196 429.733 11.8396 429.853 12.2796C430.013 12.7996 429.573 13.1996 428.893 13.2396C428.653 13.2396 428.493 13.2796 428.253 13.1596C428.093 13.0796 428.013 12.9196 427.893 12.8396C427.773 12.5996 427.653 12.3196 427.533 11.9596C427.493 11.7596 427.293 11.5596 427.173 11.2796L426.333 9.67965C425.853 9.31965 425.293 8.55965 424.773 8.27965L424.133 7.71965C423.733 7.47965 423.333 7.23965 423.013 7.15965L422.013 6.87965C421.213 6.63965 420.373 6.39965 419.733 6.47965C419.413 6.51965 419.093 6.51965 418.773 6.59965L417.613 6.87965C417.333 6.91965 416.973 7.03965 416.813 7.03965L416.653 7.07965L416.133 7.23965C414.533 7.87965 413.853 9.63965 413.373 10.4796L413.133 10.8796C412.773 11.4396 412.413 11.9596 412.333 12.1596L411.773 13.7596L411.693 14.1596L411.573 14.5196L411.533 14.8796C411.373 15.7196 411.213 16.9596 411.213 17.7596C411.253 18.3196 411.533 20.4796 411.733 21.4396C411.813 21.9196 411.893 22.2796 411.893 22.3596C412.573 23.9596 413.333 25.4396 414.573 26.7996C416.293 28.3596 419.093 29.4396 421.533 29.5996C423.293 29.7196 424.613 29.8796 424.933 29.7996C425.613 29.7196 426.013 30.0396 426.133 30.4396C426.213 30.8396 425.933 31.2796 425.213 31.3996C424.733 31.5196 422.493 31.3196 421.493 31.1996C420.973 31.1596 419.813 31.0396 419.293 30.8396C418.893 30.7596 418.373 30.7196 418.013 30.6396L417.133 30.3596L416.133 30.0396L415.493 29.5596C414.853 29.2396 414.533 28.9996 414.413 28.7996C413.293 27.6796 411.653 25.7596 410.933 24.0796L410.693 23.5196L410.653 23.3596C410.653 23.3196 410.613 23.2396 410.613 23.1996C410.573 23.0396 410.493 22.8796 410.493 22.7196C410.253 22.0796 410.013 21.2396 409.893 20.5196C409.693 19.5596 409.613 18.5596 409.693 18.0796C409.573 17.8796 409.613 17.5196 409.573 17.3196ZM435.962 27.7196L436.322 27.9596L436.642 28.3596L437.802 29.1196L439.642 29.4396C439.762 29.4796 439.922 29.4796 439.962 29.4796C440.122 29.5196 440.482 29.5196 440.642 29.5196C440.642 29.5196 442.002 29.5596 442.802 29.5596C443.402 29.4396 443.962 29.2396 444.522 29.1196L445.922 28.7996L446.882 28.0396C446.882 28.0396 447.442 27.3996 447.842 26.7196L448.282 25.9196C449.362 23.3596 449.642 21.4796 449.882 20.6396C450.082 19.9196 450.282 18.7196 450.322 17.7196L450.442 15.3196C450.242 14.4396 450.122 12.7996 450.042 12.2396C450.002 11.9596 449.882 11.5996 449.882 11.5596C449.802 10.7996 449.722 10.3196 449.562 9.91965L449.362 9.15965L449.082 7.63965L448.162 7.07965L447.722 6.79965C447.202 6.43965 446.442 6.19965 445.642 6.11965C444.922 5.99965 443.482 6.11965 443.482 6.11965L442.042 6.47965C441.482 6.63965 440.322 7.27965 439.962 7.55965C439.602 7.99965 439.042 8.55965 438.682 9.03965L437.642 10.2796L436.442 11.4396C436.442 11.7196 436.322 13.6796 435.562 14.7596L435.402 15.7996L434.962 17.7196C435.122 18.2796 435.162 18.7996 435.202 19.3596L435.282 20.2796C435.362 21.4396 435.442 22.4796 435.562 22.7996L436.042 24.5596C436.042 24.5596 436.602 25.7996 436.882 25.9596L438.122 26.6396C439.042 26.9996 440.202 26.7196 441.042 26.5196C441.082 26.5196 441.122 26.5596 441.162 26.5996L441.282 26.7196C441.322 26.8396 441.322 26.9596 441.322 27.0796C441.322 27.3996 441.202 27.7596 440.842 27.9196C440.002 28.0796 439.402 28.0796 439.242 28.0796C438.762 28.0796 437.882 28.0396 437.122 27.8396L436.842 27.7196H436.562L435.962 27.3196L435.602 26.8396C435.082 26.4796 434.242 25.1196 433.802 24.3596L433.482 21.8796C433.282 21.1596 433.082 19.6796 433.122 18.7196C433.042 17.8796 433.202 17.0396 433.362 16.1996L433.722 14.7996L434.202 12.2796L434.882 11.4396C435.362 9.99965 436.122 8.95965 436.922 8.15965C437.162 7.87965 437.802 7.19965 438.602 6.59965L439.122 6.19965L439.402 5.95965L440.922 5.11965L443.802 4.47965L445.162 4.59965L446.162 4.71965C446.402 4.75965 446.842 4.79965 447.122 4.79965C447.242 4.83965 447.322 4.83965 447.522 4.95965L448.162 5.11965L448.842 5.35965L449.482 5.79965L449.842 6.23965L450.442 6.87965C450.602 7.11965 450.882 7.47965 451.042 7.83965L451.362 9.71965L451.562 11.0796L451.882 12.4396L452.242 14.9596L452.482 16.3996V17.6396L452.162 18.6396C452.162 19.4396 452.122 20.2796 452.042 20.9996L451.322 22.4396C451.322 22.4396 451.282 22.5596 451.202 22.6796L450.962 24.0396L450.762 24.4796L450.482 25.6796L450.242 26.2796L449.962 26.9996L449.482 27.9596L448.802 28.6796L448.402 29.1996L448.282 29.3596L447.882 29.7596L446.762 30.1596L446.522 30.3196L445.842 30.6796C445.282 30.8796 444.202 31.1596 443.762 31.1996H442.522C442.522 31.1996 442.042 31.1996 441.682 31.2796C441.162 31.2796 440.162 31.2396 439.922 31.1596C439.922 31.1596 438.482 30.9596 437.482 30.7196L436.882 30.2796C436.442 29.8396 436.002 29.3996 435.682 29.0396L434.962 28.1996C435.042 28.0396 435.402 27.8796 435.642 27.7596C435.722 27.7596 435.802 27.7196 435.882 27.7196H435.962ZM470.89 16.1196V15.8796C470.89 14.9596 470.45 14.0396 469.53 11.9996C469.45 11.8796 469.33 11.5996 469.29 11.4796C468.57 10.3196 467.93 9.67965 467.41 9.19965L467.13 8.95965C465.97 7.99965 465.57 7.83965 465.21 7.75965C464.81 7.67965 464.29 7.67965 464.05 7.67965L463.09 8.35965L462.09 8.95965C461.61 9.27965 461.05 9.99965 460.53 10.7996L460.29 11.1196C459.97 11.4396 459.93 11.9596 459.97 12.6396C459.85 12.9996 459.73 13.5996 459.61 14.2396C459.61 14.2796 459.57 14.3596 459.57 14.3996V14.6396C459.45 15.3996 459.33 16.1196 459.37 16.4796C459.37 16.4796 459.37 16.7596 459.33 17.1196C459.29 17.4796 459.17 17.9196 459.05 18.2396V20.1196L459.17 24.1996L459.05 26.9196C459.09 26.9996 459.17 27.1596 459.21 27.1596L459.37 27.5196L459.41 28.1996L459.29 28.8796C459.29 29.2796 459.25 30.2796 459.21 30.5596C459.05 31.2796 458.09 31.1196 458.09 31.1196C458.09 31.1196 457.65 30.9196 457.37 30.4396C457.37 30.4396 457.09 29.6396 457.09 29.0396V24.9196C457.09 24.5196 457.13 23.9596 457.17 23.2796V22.9596L457.37 15.5996L457.57 14.2396C457.61 14.0396 457.61 13.9596 457.61 13.9196L457.73 13.1596C457.89 12.3596 458.01 11.6796 458.01 11.2796C458.01 10.9596 458.69 9.91965 459.53 8.99965L460.45 8.15965L460.77 7.99965L461.25 7.59965L461.65 7.31965C461.97 7.11965 462.49 6.75965 463.13 6.47965C463.69 6.23965 464.33 5.99965 464.97 5.95965C466.37 5.95965 467.93 7.27965 469.89 9.15965C470.41 9.67965 470.81 10.1596 471.05 10.5596C471.13 10.0396 471.29 9.27965 471.49 8.91965C471.97 8.27965 472.61 7.47965 473.49 6.63965C474.17 5.99965 475.37 5.15965 476.17 4.75965C477.41 3.99965 478.33 3.51965 479.57 3.51965C480.37 3.51965 481.13 3.71965 481.85 3.99965C482.85 4.39965 483.69 4.91965 484.25 5.23965L484.53 5.39965C486.21 6.47965 488.05 9.59965 489.01 11.2396L489.17 11.7996L489.49 12.8396V12.7996C490.01 14.3196 490.57 16.2396 490.85 18.0396L490.93 20.9996C490.93 23.5996 490.89 26.3996 490.85 26.9996C490.69 28.9196 490.29 30.7996 489.93 31.4796C489.81 32.3196 489.21 32.6796 488.69 32.3596C488.21 32.1596 488.17 30.8796 488.17 30.8796C488.41 29.9596 488.61 28.8396 488.73 26.5596V26.0796C488.73 25.5996 488.77 24.8396 488.77 23.9596V21.8396C488.77 21.0796 488.81 20.2796 488.81 19.5596V17.7196C488.57 15.4396 487.61 13.0796 486.65 11.1996C485.85 9.75965 484.97 8.35965 484.33 7.55965C483.17 6.39965 481.85 6.03965 480.97 5.79965C480.89 5.79965 480.85 5.75965 480.05 5.51965C479.69 5.43965 478.77 5.47965 478.33 5.51965C477.49 5.75965 476.57 6.27965 476.05 6.67965L475.49 7.07965C475.21 7.19965 474.69 7.95965 474.37 8.55965L473.53 10.2396L473.37 10.5196C473.21 10.9196 473.09 11.7196 473.01 12.4396C472.89 13.3996 472.85 14.3196 472.85 14.6796C472.85 14.8796 472.89 15.1996 472.97 15.5996L473.01 15.7596C473.17 16.3996 473.29 17.6796 473.17 18.5596V20.0396C473.17 20.1196 473.13 20.2396 473.13 20.3196L473.17 20.7596L473.13 21.1596C473.13 21.3596 473.09 21.7996 472.97 22.0796C473.09 22.2796 473.05 22.7196 473.01 23.0796C473.01 23.1996 472.97 23.4396 472.97 23.5196C472.93 23.7596 472.89 23.9996 472.93 24.1596C472.93 24.9196 472.93 25.6796 472.89 26.3996C472.85 27.1196 472.81 27.9596 472.85 28.6796L472.97 29.2796C473.05 29.9196 473.13 30.5196 472.97 30.9996C472.69 31.6396 471.17 31.4796 470.89 30.9196C470.81 30.5996 470.77 29.8796 470.85 29.4396C470.85 29.3596 470.89 29.1996 470.89 29.1196C470.85 28.6796 470.85 28.0796 470.85 27.6396C470.85 26.9596 470.85 26.2396 470.89 25.5596C470.89 25.3596 470.93 24.9596 470.93 24.7596V23.1196L470.89 20.8396V19.2396C470.89 18.1996 470.85 17.1596 470.89 16.1196Z" fill="black"/>
</svg>
