<svg width="317" height="317" viewBox="0 0 317 317" fill="none" xmlns="http://www.w3.org/2000/svg">
<rect width="317" height="317" rx="32" fill="#FFFFFF"/>
<path d="M44.1338 179.812H36.7168V179.436C36.7168 172.36 41.8438 165.422 52.0977 165.422C61.3262 165.422 67.3418 170.959 67.3418 178.342C67.3418 184.46 63.5137 188.425 59.2754 193.142L47.7568 206.096V206.54H68.1621V213H36.9902V208.146L54.3193 188.938C56.8486 186.169 59.583 183.059 59.583 178.991C59.583 174.65 56.3359 171.779 51.9268 171.779C47.0049 171.779 44.1338 175.368 44.1338 179.401C44.1338 179.504 44.1338 179.743 44.1338 179.812ZM95.8477 213H88.1914V174.138H87.8154L77.1172 181.828V174.411L88.1914 166.345H95.8477V213ZM109.109 190.646V188.732C109.109 174.685 115.535 165.422 126.404 165.422C137.239 165.422 143.528 174.582 143.528 188.732V190.646C143.528 204.694 137.103 213.923 126.268 213.923C115.467 213.923 109.109 204.763 109.109 190.646ZM116.834 188.767V190.578C116.834 201.14 120.491 207.463 126.336 207.463C132.181 207.463 135.804 201.105 135.804 190.578V188.767C135.804 178.273 132.181 171.882 126.336 171.882C120.457 171.882 116.834 178.239 116.834 188.767ZM156.202 197.224C152.225 197.224 149.478 194.191 149.478 189.819C149.478 185.446 152.225 182.436 156.202 182.436C160.179 182.436 162.903 185.424 162.903 189.819C162.903 194.191 160.179 197.224 156.202 197.224ZM157.564 213H152.664L163.584 197.421L173.011 183.007H177.867L166.683 198.872L157.564 213ZM156.202 193.928C157.828 193.928 158.904 192.302 158.904 189.819C158.904 187.248 157.872 185.71 156.202 185.71C154.532 185.71 153.477 187.292 153.477 189.819C153.477 192.324 154.554 193.928 156.202 193.928ZM174.153 213.505C170.22 213.505 167.474 210.495 167.474 206.101C167.474 201.75 170.22 198.74 174.153 198.74C178.13 198.74 180.877 201.728 180.877 206.101C180.877 210.495 178.13 213.505 174.153 213.505ZM174.153 210.231C175.801 210.231 176.856 208.605 176.856 206.101C176.856 203.552 175.823 202.014 174.153 202.014C172.505 202.014 171.451 203.596 171.451 206.101C171.451 208.627 172.527 210.231 174.153 210.231Z" fill="black"/>
<path d="M37.274 246.846H38.75V249.762H37.274V246.846ZM44.726 240.132H46.22V249.708H44.726V240.132ZM33.026 247.35L32.846 246.252C33.89 246.252 35.006 246.246 36.194 246.234C37.394 246.21 38.612 246.174 39.848 246.126C41.084 246.066 42.284 245.97 43.448 245.838L43.538 246.81C42.35 246.978 41.138 247.104 39.902 247.188C38.678 247.26 37.478 247.308 36.302 247.332C35.138 247.344 34.046 247.35 33.026 247.35ZM35.312 250.302H46.22V253.686H36.824V255.522H35.366V252.678H44.744V251.364H35.312V250.302ZM35.366 255.126H46.76V256.224H35.366V255.126ZM41.486 247.872H45.212V248.844H41.486V247.872ZM38.102 240.438C38.906 240.438 39.608 240.534 40.208 240.726C40.808 240.918 41.276 241.2 41.612 241.572C41.948 241.944 42.116 242.382 42.116 242.886C42.116 243.378 41.948 243.81 41.612 244.182C41.276 244.542 40.808 244.824 40.208 245.028C39.608 245.22 38.906 245.316 38.102 245.316C37.298 245.316 36.59 245.22 35.978 245.028C35.378 244.824 34.91 244.542 34.574 244.182C34.25 243.81 34.088 243.378 34.088 242.886C34.088 242.382 34.25 241.944 34.574 241.572C34.91 241.2 35.378 240.918 35.978 240.726C36.59 240.534 37.298 240.438 38.102 240.438ZM38.102 241.464C37.31 241.464 36.674 241.59 36.194 241.842C35.726 242.094 35.492 242.442 35.492 242.886C35.492 243.306 35.726 243.648 36.194 243.912C36.674 244.164 37.31 244.29 38.102 244.29C38.894 244.29 39.524 244.164 39.992 243.912C40.472 243.648 40.712 243.306 40.712 242.886C40.712 242.442 40.472 242.094 39.992 241.842C39.524 241.59 38.894 241.464 38.102 241.464ZM57.5147 241.518H58.7387V244.434C58.7387 245.334 58.6247 246.216 58.3967 247.08C58.1807 247.944 57.8687 248.754 57.4607 249.51C57.0527 250.266 56.5727 250.938 56.0207 251.526C55.4687 252.114 54.8687 252.582 54.2207 252.93L53.3027 251.724C53.9027 251.424 54.4547 251.022 54.9587 250.518C55.4747 250.002 55.9247 249.414 56.3087 248.754C56.6927 248.094 56.9867 247.398 57.1907 246.666C57.4067 245.922 57.5147 245.178 57.5147 244.434V241.518ZM57.7847 241.518H58.9907V244.434C58.9907 245.154 59.0927 245.868 59.2967 246.576C59.5127 247.284 59.8127 247.95 60.1967 248.574C60.5807 249.198 61.0187 249.756 61.5107 250.248C62.0147 250.74 62.5547 251.13 63.1307 251.418L62.2127 252.606C61.5767 252.282 60.9887 251.838 60.4487 251.274C59.9207 250.71 59.4527 250.068 59.0447 249.348C58.6487 248.616 58.3367 247.836 58.1087 247.008C57.8927 246.168 57.7847 245.31 57.7847 244.434V241.518ZM64.5527 240.114H66.0467V256.404H64.5527V240.114ZM65.7047 246.702H68.7107V247.98H65.7047V246.702ZM81.9933 240.114H83.4693V256.404H81.9933V240.114ZM78.1953 246.648H82.6593V247.89H78.1953V246.648ZM76.7733 241.878H78.2313C78.2313 243.03 78.0993 244.152 77.8353 245.244C77.5833 246.324 77.1693 247.35 76.5933 248.322C76.0293 249.294 75.2793 250.2 74.3433 251.04C73.4073 251.88 72.2613 252.636 70.9053 253.308L70.0773 252.138C71.2653 251.562 72.2793 250.914 73.1193 250.194C73.9713 249.474 74.6673 248.694 75.2073 247.854C75.7473 247.002 76.1433 246.102 76.3953 245.154C76.6473 244.194 76.7733 243.18 76.7733 242.112V241.878ZM70.7973 241.878H77.5473V243.084H70.7973V241.878ZM87.1939 251.256H88.2559C89.2519 251.256 90.2239 251.232 91.1719 251.184C92.1199 251.124 93.1399 251.004 94.2319 250.824L94.3759 252.048C93.2479 252.252 92.1979 252.384 91.2259 252.444C90.2659 252.492 89.2759 252.516 88.2559 252.516H87.1939V251.256ZM87.1579 241.878H93.2419V247.602H88.6339V251.724H87.1939V246.378H91.8019V243.12H87.1579V241.878ZM99.0379 240.114H100.46V256.404H99.0379V240.114ZM96.2839 246.54H99.4159V247.764H96.2839V246.54ZM95.3479 240.474H96.7339V255.558H95.3479V240.474ZM111.557 247.764H113.033V249.834H111.557V247.764ZM118.415 240.132H119.909V251.04H118.415V240.132ZM119.279 245.046H122.285V246.288H119.279V245.046ZM107.381 250.572L107.201 249.366C108.173 249.366 109.235 249.36 110.387 249.348C111.551 249.324 112.739 249.276 113.951 249.204C115.163 249.132 116.327 249.018 117.443 248.862L117.551 249.924C116.399 250.128 115.217 250.278 114.005 250.374C112.805 250.458 111.635 250.512 110.495 250.536C109.367 250.56 108.329 250.572 107.381 250.572ZM109.199 251.868H119.909V256.404H118.415V253.056H109.199V251.868ZM107.615 241.59H116.957V242.724H107.615V241.59ZM112.277 243.336C113.429 243.336 114.347 243.552 115.031 243.984C115.727 244.416 116.075 245.004 116.075 245.748C116.075 246.492 115.727 247.08 115.031 247.512C114.347 247.944 113.429 248.16 112.277 248.16C111.137 248.16 110.219 247.944 109.523 247.512C108.827 247.08 108.479 246.492 108.479 245.748C108.479 245.004 108.827 244.416 109.523 243.984C110.219 243.552 111.137 243.336 112.277 243.336ZM112.277 244.38C111.557 244.38 110.981 244.5 110.549 244.74C110.117 244.98 109.901 245.316 109.901 245.748C109.901 246.156 110.117 246.492 110.549 246.756C110.981 247.008 111.557 247.134 112.277 247.134C112.997 247.134 113.573 247.008 114.005 246.756C114.437 246.492 114.653 246.156 114.653 245.748C114.653 245.316 114.437 244.98 114.005 244.74C113.573 244.5 112.997 244.38 112.277 244.38ZM111.557 239.988H113.033V242.148H111.557V239.988ZM135.693 240.132H137.187V252.012H135.693V240.132ZM126.729 254.82H137.691V256.044H126.729V254.82ZM126.729 250.806H128.223V255.234H126.729V250.806ZM128.457 241.266C129.273 241.266 129.999 241.434 130.635 241.77C131.271 242.106 131.775 242.58 132.147 243.192C132.519 243.792 132.705 244.482 132.705 245.262C132.705 246.042 132.519 246.738 132.147 247.35C131.775 247.95 131.271 248.424 130.635 248.772C129.999 249.108 129.273 249.276 128.457 249.276C127.653 249.276 126.927 249.108 126.279 248.772C125.643 248.424 125.139 247.95 124.767 247.35C124.395 246.738 124.209 246.042 124.209 245.262C124.209 244.482 124.395 243.792 124.767 243.192C125.139 242.58 125.643 242.106 126.279 241.77C126.927 241.434 127.653 241.266 128.457 241.266ZM128.457 242.562C127.929 242.562 127.455 242.676 127.035 242.904C126.615 243.132 126.279 243.45 126.027 243.858C125.787 244.266 125.667 244.734 125.667 245.262C125.667 245.802 125.787 246.276 126.027 246.684C126.279 247.08 126.615 247.392 127.035 247.62C127.455 247.848 127.929 247.962 128.457 247.962C128.985 247.962 129.459 247.848 129.879 247.62C130.311 247.392 130.647 247.08 130.887 246.684C131.127 246.276 131.247 245.802 131.247 245.262C131.247 244.734 131.127 244.266 130.887 243.858C130.647 243.45 130.311 243.132 129.879 242.904C129.459 242.676 128.985 242.562 128.457 242.562ZM145.332 241.176H152.928V247.818H145.332V241.176ZM151.47 242.364H146.79V246.63H151.47V242.364ZM156.33 240.114H157.824V249.456H156.33V240.114ZM151.902 251.4H153.18V251.706C153.18 252.294 153.012 252.846 152.676 253.362C152.352 253.866 151.902 254.328 151.326 254.748C150.75 255.156 150.09 255.492 149.346 255.756C148.602 256.032 147.822 256.23 147.006 256.35L146.484 255.198C147.06 255.126 147.612 255.012 148.14 254.856C148.668 254.7 149.16 254.514 149.616 254.298C150.072 254.07 150.468 253.818 150.804 253.542C151.152 253.266 151.422 252.972 151.614 252.66C151.806 252.348 151.902 252.03 151.902 251.706V251.4ZM152.136 251.4H153.432V251.706C153.432 252.09 153.576 252.474 153.864 252.858C154.152 253.242 154.542 253.596 155.034 253.92C155.538 254.232 156.108 254.502 156.744 254.73C157.392 254.958 158.07 255.114 158.778 255.198L158.256 256.35C157.428 256.23 156.648 256.032 155.916 255.756C155.184 255.48 154.53 255.132 153.954 254.712C153.39 254.292 152.946 253.83 152.622 253.326C152.298 252.81 152.136 252.27 152.136 251.706V251.4ZM147.132 250.572H158.202V251.724H147.132V250.572ZM151.92 248.988H153.432V251.094H151.92V248.988ZM166.005 241.374H173.205V242.616H166.005V241.374ZM168.453 245.01H169.929V249.078H168.453V245.01ZM172.611 241.374H174.069V242.238C174.069 242.778 174.051 243.45 174.015 244.254C173.991 245.058 173.871 245.994 173.655 247.062L172.179 246.918C172.395 245.838 172.521 244.92 172.557 244.164C172.593 243.408 172.611 242.766 172.611 242.238V241.374ZM176.283 240.114H177.795V252.372H176.283V240.114ZM177.111 245.406H180.117V246.666H177.111V245.406ZM167.499 254.82H178.317V256.044H167.499V254.82ZM167.499 251.256H168.993V255.18H167.499V251.256ZM165.177 249.78L165.015 248.556C165.975 248.556 167.037 248.544 168.201 248.52C169.365 248.496 170.547 248.448 171.747 248.376C172.947 248.292 174.099 248.178 175.203 248.034L175.293 249.132C174.177 249.324 173.019 249.468 171.819 249.564C170.619 249.66 169.449 249.72 168.309 249.744C167.181 249.768 166.137 249.78 165.177 249.78ZM193.543 240.114H195.019V256.422H193.543V240.114ZM182.617 251.238H183.967C184.891 251.238 185.779 251.226 186.631 251.202C187.495 251.166 188.365 251.106 189.241 251.022C190.129 250.938 191.053 250.818 192.013 250.662L192.157 251.886C190.693 252.126 189.313 252.288 188.017 252.372C186.721 252.444 185.371 252.48 183.967 252.48H182.617V251.238ZM182.581 241.626H190.105V247.44H184.129V251.706H182.617V246.234H188.593V242.85H182.581V241.626ZM214.216 240.132H215.71V252.156H214.216V240.132ZM210.688 245.136H214.504V246.378H210.688V245.136ZM209.176 241.374H210.76C210.76 242.778 210.448 244.062 209.824 245.226C209.2 246.378 208.324 247.38 207.196 248.232C206.068 249.084 204.736 249.768 203.2 250.284L202.57 249.078C203.89 248.634 205.048 248.064 206.044 247.368C207.04 246.672 207.808 245.868 208.348 244.956C208.9 244.044 209.176 243.054 209.176 241.986V241.374ZM203.38 241.374H210.148V242.616H203.38V241.374ZM205.414 254.82H216.124V256.044H205.414V254.82ZM205.414 250.932H206.926V255.432H205.414V250.932ZM225.465 240.69H226.779V241.608C226.779 242.232 226.659 242.82 226.419 243.372C226.179 243.912 225.849 244.41 225.429 244.866C225.021 245.322 224.541 245.73 223.989 246.09C223.437 246.45 222.837 246.75 222.189 246.99C221.553 247.23 220.899 247.404 220.227 247.512L219.615 246.306C220.215 246.222 220.797 246.078 221.361 245.874C221.937 245.67 222.471 245.424 222.963 245.136C223.455 244.836 223.887 244.5 224.259 244.128C224.643 243.756 224.937 243.36 225.141 242.94C225.357 242.508 225.465 242.064 225.465 241.608V240.69ZM225.717 240.69H227.013V241.608C227.013 242.064 227.121 242.502 227.337 242.922C227.553 243.342 227.847 243.738 228.219 244.11C228.603 244.482 229.041 244.818 229.533 245.118C230.025 245.418 230.553 245.67 231.117 245.874C231.693 246.078 232.275 246.222 232.863 246.306L232.269 247.512C231.597 247.404 230.943 247.23 230.307 246.99C229.671 246.738 229.071 246.432 228.507 246.072C227.955 245.712 227.469 245.304 227.049 244.848C226.641 244.392 226.317 243.894 226.077 243.354C225.837 242.802 225.717 242.22 225.717 241.608V240.69ZM225.465 250.212H226.941V256.404H225.465V250.212ZM218.877 249.276H233.583V250.518H218.877V249.276Z" fill="#6C6B72"/>
<path d="M44.762 266.114H46.256V282.404H44.762V266.114ZM39.992 267.878H41.468C41.468 269.054 41.324 270.188 41.036 271.28C40.76 272.372 40.322 273.41 39.722 274.394C39.122 275.366 38.342 276.272 37.382 277.112C36.422 277.952 35.258 278.702 33.89 279.362L33.098 278.156C34.67 277.4 35.966 276.518 36.986 275.51C38.006 274.502 38.762 273.38 39.254 272.144C39.746 270.896 39.992 269.552 39.992 268.112V267.878ZM33.854 267.878H40.622V269.084H33.854V267.878ZM55.8486 267.662H57.1626V268.148C57.1626 268.832 56.9946 269.468 56.6586 270.056C56.3226 270.632 55.8606 271.148 55.2726 271.604C54.6966 272.048 54.0306 272.42 53.2746 272.72C52.5306 273.008 51.7386 273.218 50.8986 273.35L50.3406 272.144C50.9166 272.072 51.4746 271.952 52.0146 271.784C52.5666 271.604 53.0706 271.394 53.5266 271.154C53.9826 270.902 54.3846 270.62 54.7326 270.308C55.0806 269.984 55.3506 269.642 55.5426 269.282C55.7466 268.922 55.8486 268.544 55.8486 268.148V267.662ZM56.4606 267.662H57.7746V268.148C57.7746 268.544 57.8706 268.922 58.0626 269.282C58.2666 269.642 58.5426 269.978 58.8906 270.29C59.2386 270.602 59.6406 270.884 60.0966 271.136C60.5646 271.388 61.0686 271.604 61.6086 271.784C62.1486 271.952 62.7066 272.072 63.2826 272.144L62.7246 273.35C61.8966 273.218 61.1046 273.002 60.3486 272.702C59.5926 272.402 58.9266 272.03 58.3506 271.586C57.7746 271.13 57.3126 270.614 56.9646 270.038C56.6286 269.462 56.4606 268.832 56.4606 268.148V267.662ZM50.8086 266.906H62.8326V268.13H50.8086V266.906ZM51.3486 280.82H62.5266V282.044H51.3486V280.82ZM51.3486 277.436H52.8426V281.306H51.3486V277.436ZM49.4586 274.898H64.2006V276.122H49.4586V274.898ZM56.0646 272.198H57.5406V275.402H56.0646V272.198ZM72.043 272.343H70.4697V272.281C70.4697 270.462 71.7881 268.757 74.2842 268.757C76.5518 268.757 78.0371 270.163 78.0371 272.044C78.0371 273.547 77.123 274.558 75.998 275.841L72.8076 279.497V279.594H78.2656V281H70.5137V279.98L75.0312 274.839C75.6904 274.092 76.4023 273.257 76.4023 272.158C76.4023 270.919 75.4795 270.137 74.249 270.137C72.8516 270.137 72.043 271.139 72.043 272.281C72.043 272.29 72.043 272.334 72.043 272.343ZM92.1007 266.132H93.5947V278.156H92.1007V266.132ZM88.5727 271.136H92.3887V272.378H88.5727V271.136ZM87.0607 267.374H88.6447C88.6447 268.778 88.3327 270.062 87.7087 271.226C87.0847 272.378 86.2087 273.38 85.0807 274.232C83.9527 275.084 82.6207 275.768 81.0847 276.284L80.4547 275.078C81.7747 274.634 82.9327 274.064 83.9287 273.368C84.9247 272.672 85.6927 271.868 86.2327 270.956C86.7847 270.044 87.0607 269.054 87.0607 267.986V267.374ZM81.2647 267.374H88.0327V268.616H81.2647V267.374ZM83.2987 280.82H94.0087V282.044H83.2987V280.82ZM83.2987 276.932H84.8107V281.432H83.2987V276.932ZM102.339 275.727C101.899 275.727 101.601 275.428 101.601 274.997C101.601 274.558 101.899 274.259 102.339 274.259H110.047L111.62 274.364L109.44 272.387L108.254 271.174C108.122 271.042 108.043 270.857 108.043 270.655C108.043 270.251 108.359 269.952 108.764 269.952C108.957 269.952 109.133 270.022 109.3 270.181L113.58 274.443C113.738 274.593 113.826 274.795 113.826 274.997C113.826 275.19 113.738 275.393 113.58 275.542L109.3 279.813C109.133 279.963 108.957 280.033 108.764 280.033C108.359 280.033 108.043 279.734 108.043 279.33C108.043 279.128 108.122 278.943 108.254 278.812L109.44 277.599L111.62 275.621L110.047 275.727H102.339ZM125.463 269.003H127.854V277.133H129.409V278.539H127.854V281H126.307V278.539H120.479V277.124C121.974 274.417 123.758 271.71 125.463 269.003ZM122.079 277.133H126.307V270.392H126.219C124.821 272.483 123.336 274.848 122.079 277.054V277.133ZM133.004 272.343H131.431V272.281C131.431 270.462 132.749 268.757 135.245 268.757C137.513 268.757 138.998 270.163 138.998 272.044C138.998 273.547 138.084 274.558 136.959 275.841L133.769 279.497V279.594H139.227V281H131.475V279.98L135.992 274.839C136.651 274.092 137.363 273.257 137.363 272.158C137.363 270.919 136.44 270.137 135.21 270.137C133.812 270.137 133.004 271.139 133.004 272.281C133.004 272.29 133.004 272.334 133.004 272.343ZM153.062 266.132H154.556V278.156H153.062V266.132ZM149.534 271.136H153.35V272.378H149.534V271.136ZM148.022 267.374H149.606C149.606 268.778 149.294 270.062 148.67 271.226C148.046 272.378 147.17 273.38 146.042 274.232C144.914 275.084 143.582 275.768 142.046 276.284L141.416 275.078C142.736 274.634 143.894 274.064 144.89 273.368C145.886 272.672 146.654 271.868 147.194 270.956C147.746 270.044 148.022 269.054 148.022 267.986V267.374ZM142.226 267.374H148.994V268.616H142.226V267.374ZM144.26 280.82H154.97V282.044H144.26V280.82ZM144.26 276.932H145.772V281.432H144.26V276.932ZM165.066 267.158C166.206 267.158 167.22 267.344 168.108 267.716C168.996 268.088 169.698 268.61 170.214 269.282C170.73 269.954 170.988 270.74 170.988 271.64C170.988 272.552 170.73 273.344 170.214 274.016C169.698 274.688 168.996 275.21 168.108 275.582C167.22 275.954 166.206 276.14 165.066 276.14C163.95 276.14 162.942 275.954 162.042 275.582C161.154 275.21 160.452 274.688 159.936 274.016C159.42 273.344 159.162 272.552 159.162 271.64C159.162 270.74 159.42 269.954 159.936 269.282C160.452 268.61 161.154 268.088 162.042 267.716C162.942 267.344 163.95 267.158 165.066 267.158ZM165.066 268.364C164.214 268.364 163.452 268.502 162.78 268.778C162.108 269.054 161.574 269.438 161.178 269.93C160.782 270.41 160.584 270.98 160.584 271.64C160.584 272.288 160.782 272.858 161.178 273.35C161.574 273.842 162.108 274.226 162.78 274.502C163.452 274.778 164.214 274.916 165.066 274.916C165.93 274.916 166.698 274.778 167.37 274.502C168.042 274.226 168.57 273.842 168.954 273.35C169.35 272.858 169.548 272.288 169.548 271.64C169.548 270.98 169.35 270.41 168.954 269.93C168.57 269.438 168.042 269.054 167.37 268.778C166.698 268.502 165.93 268.364 165.066 268.364ZM157.722 279.002H172.482V280.244H157.722V279.002ZM174.281 279.146H189.041V280.388H174.281V279.146ZM180.887 275.672H182.363V279.668H180.887V275.672ZM176.081 267.32H187.205V272.252H177.593V275.51H176.117V271.064H185.729V268.544H176.081V267.32ZM176.117 274.88H187.583V276.104H176.117V274.88ZM196.865 272.343H195.292V272.281C195.292 270.462 196.61 268.757 199.106 268.757C201.374 268.757 202.859 270.163 202.859 272.044C202.859 273.547 201.945 274.558 200.82 275.841L197.63 279.497V279.594H203.088V281H195.336V279.98L199.854 274.839C200.513 274.092 201.225 273.257 201.225 272.158C201.225 270.919 200.302 270.137 199.071 270.137C197.674 270.137 196.865 271.139 196.865 272.281C196.865 272.29 196.865 272.334 196.865 272.343ZM209.979 281H208.379V270.734H208.3L205.522 272.747V271.121L208.379 269.003H209.979V281ZM213.81 267.662H215.232V271.622H218.652V267.662H220.038V278.336H213.81V267.662ZM215.232 272.828V277.112H218.652V272.828H215.232ZM225.636 266.114H227.076V282.404H225.636V266.114ZM223.026 272.558H226.158V273.8H223.026V272.558ZM222.018 266.456H223.44V281.576H222.018V266.456ZM233.871 273.854H248.577V275.078H233.871V273.854ZM241.215 276.482C242.955 276.482 244.317 276.74 245.301 277.256C246.285 277.772 246.777 278.498 246.777 279.434C246.777 280.37 246.285 281.09 245.301 281.594C244.317 282.11 242.955 282.368 241.215 282.368C239.475 282.368 238.107 282.11 237.111 281.594C236.127 281.09 235.635 280.37 235.635 279.434C235.635 278.498 236.127 277.772 237.111 277.256C238.107 276.74 239.475 276.482 241.215 276.482ZM241.215 277.67C240.363 277.67 239.631 277.736 239.019 277.868C238.419 278 237.957 278.198 237.633 278.462C237.309 278.726 237.147 279.05 237.147 279.434C237.147 279.806 237.309 280.124 237.633 280.388C237.957 280.64 238.419 280.838 239.019 280.982C239.631 281.114 240.363 281.18 241.215 281.18C242.067 281.18 242.793 281.114 243.393 280.982C244.005 280.838 244.473 280.64 244.797 280.388C245.121 280.124 245.283 279.806 245.283 279.434C245.283 279.05 245.121 278.726 244.797 278.462C244.473 278.198 244.005 278 243.393 277.868C242.793 277.736 242.067 277.67 241.215 277.67ZM240.261 267.59H241.575V268.076C241.575 268.604 241.461 269.096 241.233 269.552C241.017 269.996 240.711 270.404 240.315 270.776C239.919 271.148 239.451 271.478 238.911 271.766C238.383 272.054 237.807 272.294 237.183 272.486C236.559 272.666 235.905 272.798 235.221 272.882L234.681 271.694C235.269 271.634 235.833 271.526 236.373 271.37C236.925 271.214 237.435 271.028 237.903 270.812C238.383 270.584 238.797 270.332 239.145 270.056C239.493 269.768 239.763 269.462 239.955 269.138C240.159 268.802 240.261 268.448 240.261 268.076V267.59ZM240.873 267.59H242.187V268.076C242.187 268.448 242.283 268.802 242.475 269.138C242.679 269.462 242.955 269.768 243.303 270.056C243.651 270.344 244.059 270.602 244.527 270.83C245.007 271.046 245.517 271.232 246.057 271.388C246.609 271.532 247.179 271.634 247.767 271.694L247.227 272.882C246.543 272.798 245.889 272.666 245.265 272.486C244.641 272.294 244.059 272.054 243.519 271.766C242.991 271.478 242.529 271.148 242.133 270.776C241.737 270.404 241.425 269.99 241.197 269.534C240.981 269.078 240.873 268.592 240.873 268.076V267.59ZM235.221 266.942H247.245V268.166H235.221V266.942ZM261.445 266.114H262.939V282.386H261.445V266.114ZM262.543 272.72H265.531V273.962H262.543V272.72ZM257.287 267.86H258.745C258.745 269.408 258.493 270.89 257.989 272.306C257.485 273.71 256.693 275.012 255.613 276.212C254.533 277.4 253.111 278.432 251.347 279.308L250.519 278.156C252.031 277.4 253.285 276.518 254.281 275.51C255.289 274.49 256.039 273.362 256.531 272.126C257.035 270.878 257.287 269.534 257.287 268.094V267.86ZM251.275 267.86H258.043V269.102H251.275V267.86Z" fill="#6C6B72"/>
<rect x="16" y="16" width="130" height="40" rx="20" fill="#1A69F1"/>
<path d="M41.876 42H39.5029V30.0029H41.876V42ZM44.7588 42V32.6748H47.0176V34.2129H47.1318C47.334 33.5186 47.9844 32.5254 49.6807 32.5254C51.0869 32.5254 51.957 33.2725 52.2383 34.2832H52.3262C52.6514 33.4219 53.5566 32.5254 55.1562 32.5254C57.0459 32.5254 58.1621 33.6592 58.1621 35.4873V42H55.8506V36.1992C55.8506 35.0127 55.2178 34.4326 54.251 34.4326C53.3018 34.4326 52.5723 35.1357 52.5723 36.3311V42H50.3398V36.2432C50.3398 35.0303 49.6455 34.4326 48.7139 34.4326C47.7822 34.4326 47.0703 35.1006 47.0703 36.3135V42H44.7588ZM65.958 42.123C64.6836 42.123 63.7256 41.5605 63.3125 40.5762H63.1982V45.0938H60.8779V32.666H63.1543V34.1514H63.2773C63.6553 33.1494 64.6836 32.5518 65.9932 32.5518C68.1553 32.5518 69.4648 34.1074 69.4648 36.7002V37.9658C69.4648 40.5586 68.1465 42.123 65.958 42.123ZM65.1758 40.2773C66.3975 40.2773 67.1006 39.3545 67.1006 37.7461V36.9375C67.1006 35.3203 66.3975 34.3975 65.1494 34.3975C63.9453 34.3975 63.1982 35.3027 63.1982 36.7881V38.001C63.1982 39.3721 63.9893 40.2773 65.1758 40.2773ZM74.4131 42.1406C72.5938 42.1406 71.3457 41.0508 71.3457 39.293C71.3457 37.623 72.5059 36.5156 74.668 36.5156H76.9443V35.6807C76.9443 34.7402 76.3379 34.292 75.3887 34.292C74.4395 34.292 73.9912 34.7051 73.877 35.2852H71.6885C71.7939 33.7559 72.8838 32.5254 75.4414 32.5254C77.5332 32.5254 79.2383 33.3691 79.2383 35.7334V42H77.0498V40.8135H76.9443C76.5752 41.499 75.793 42.1406 74.4131 42.1406ZM75.1689 40.4355C76.1445 40.4355 76.9443 39.7852 76.9443 38.8799V37.9131H75.1602C74.1318 37.9131 73.6484 38.4316 73.6484 39.1436C73.6484 40.0137 74.3779 40.4355 75.1689 40.4355ZM81.5059 37.8867V36.7178C81.5059 34.1602 83.1143 32.5078 85.6543 32.5078C88.0889 32.5078 89.4688 33.9844 89.5039 35.7598H87.3682C87.2979 35.127 86.8584 34.3623 85.7158 34.3623C84.5029 34.3623 83.835 35.2939 83.835 36.7529V37.8779C83.835 39.3896 84.5381 40.3125 85.7246 40.3125C86.8408 40.3125 87.2979 39.7588 87.4033 38.9941H89.5391C89.5039 40.7695 88.2031 42.167 85.6543 42.167C83.0703 42.167 81.5059 40.5322 81.5059 37.8867ZM92.3428 32.7627V30.4424H94.5928V32.7627H96.6582V34.5381H94.5928V39.0645C94.5928 39.9961 94.9795 40.2773 95.9463 40.2773C96.2363 40.2773 96.5791 40.2598 96.7461 40.2422V41.9561C96.5615 41.9912 95.9111 42.0527 95.3838 42.0527C93.0635 42.0527 92.29 41.2705 92.29 39.3633V34.5381H90.875V32.7627H92.3428ZM105.526 44.6807H97.5459V42.9053H105.526V44.6807ZM106.168 36.2695V35.7334C106.168 32.1387 107.891 29.7744 110.756 29.7744C113.612 29.7744 115.291 32.1035 115.291 35.7334V36.2695C115.291 39.8643 113.56 42.2285 110.712 42.2285C107.864 42.2285 106.168 39.8906 106.168 36.2695ZM108.541 35.7422V36.252C108.541 38.7832 109.376 40.2949 110.729 40.2949C112.083 40.2949 112.918 38.7832 112.918 36.252V35.7422C112.918 33.2197 112.092 31.7168 110.729 31.7168C109.367 31.7168 108.541 33.2197 108.541 35.7422ZM122.771 42H120.415V32.2881H120.301L117.576 34.2217V32.042L120.415 30.0029H122.771V42Z" fill="white"/>
</svg>
