<svg width="317" height="317" viewBox="0 0 317 317" fill="none" xmlns="http://www.w3.org/2000/svg">
<rect width="317" height="317" rx="32" fill="#FFFFFF"/>
<path d="M79.6318 176.564H72.1123C71.5312 174.479 69.1387 171.813 64.4561 171.813C58.167 171.813 53.8604 178.171 53.9287 189.519H54.4072C55.7402 186.34 59.3975 182.785 65.96 182.785C73.2744 182.785 80.5889 187.912 80.5889 197.688C80.5889 208.01 73.4795 213.923 63.9775 213.923C58.543 213.923 53.2451 212.009 49.9297 206.608C47.7764 203.088 46.4434 198.098 46.4434 191.193C46.4434 173.625 53.7236 165.49 64.627 165.49C74.0264 165.49 79.29 171.267 79.6318 176.564ZM54.9199 198.063C54.9199 204.079 59.0215 207.6 64.0117 207.6C69.0703 207.6 73.0693 204.489 73.0693 198.098C73.0693 191.911 68.7285 188.869 64.0459 188.869C58.6797 188.869 54.9199 192.663 54.9199 198.063ZM99.4902 192.082V185.827H104.378C108.924 185.827 112.239 182.785 112.205 178.615C112.205 174.479 108.924 171.643 104.344 171.643C99.7295 171.643 96.6875 174.548 96.4824 177.795H89.2021C89.4072 171.164 94.7393 165.456 104.515 165.422C113.812 165.354 119.725 170.583 119.896 177.453C120.032 184.084 114.734 187.81 111.248 188.391V188.801C115.35 189.211 121.229 192.526 121.365 199.978C121.502 208.488 113.914 213.957 104.275 213.957C94.3291 213.957 88.4844 208.317 88.2109 201.447H95.3545C95.6963 204.934 99.3193 207.634 104.344 207.668C110.018 207.702 113.675 204.387 113.606 199.772C113.572 195.227 109.983 192.082 104.617 192.082H99.4902ZM129.979 190.646V188.732C129.979 174.685 136.404 165.422 147.273 165.422C158.108 165.422 164.397 174.582 164.397 188.732V190.646C164.397 204.694 157.972 213.923 147.137 213.923C136.336 213.923 129.979 204.763 129.979 190.646ZM137.703 188.767V190.578C137.703 201.14 141.36 207.463 147.205 207.463C153.05 207.463 156.673 201.105 156.673 190.578V188.767C156.673 178.273 153.05 171.882 147.205 171.882C141.326 171.882 137.703 178.239 137.703 188.767ZM172.385 179.115H191.6V198.555H172.385V179.115ZM187.01 182.895H177.02V194.775H187.01V182.895ZM198.35 175.56H203.03V205.665H198.35V175.56ZM201.635 187.8H208.835V191.715H201.635V187.8ZM177.02 212.055H204.74V215.88H177.02V212.055ZM177.02 202.74H181.745V213.855H177.02V202.74ZM223.591 196.485H228.271V205.53H223.591V196.485ZM241.681 175.605H246.406V206.79H241.681V175.605ZM217.651 212.055H247.396V215.88H217.651V212.055ZM217.651 203.775H222.376V213.09H217.651V203.775ZM212.746 198.06L212.161 194.235C214.681 194.205 217.426 194.175 220.396 194.145C223.366 194.085 226.396 193.98 229.486 193.83C232.606 193.65 235.606 193.38 238.486 193.02L238.846 196.395C235.906 196.875 232.891 197.235 229.801 197.475C226.741 197.715 223.756 197.865 220.846 197.925C217.936 197.985 215.236 198.03 212.746 198.06ZM233.626 199.68H242.851V203.01H233.626V199.68ZM225.436 177.135C227.476 177.135 229.246 177.435 230.746 178.035C232.276 178.635 233.461 179.49 234.301 180.6C235.171 181.68 235.606 182.94 235.606 184.38C235.606 185.82 235.171 187.095 234.301 188.205C233.461 189.315 232.276 190.17 230.746 190.77C229.246 191.34 227.476 191.625 225.436 191.625C223.456 191.625 221.686 191.34 220.126 190.77C218.596 190.17 217.396 189.315 216.526 188.205C215.686 187.095 215.266 185.82 215.266 184.38C215.266 182.94 215.686 181.68 216.526 180.6C217.396 179.49 218.596 178.635 220.126 178.035C221.686 177.435 223.456 177.135 225.436 177.135ZM225.436 180.6C223.756 180.6 222.376 180.945 221.296 181.635C220.246 182.295 219.721 183.21 219.721 184.38C219.721 185.55 220.246 186.48 221.296 187.17C222.376 187.83 223.756 188.16 225.436 188.16C227.116 188.16 228.481 187.83 229.531 187.17C230.581 186.48 231.106 185.55 231.106 184.38C231.106 183.6 230.866 182.94 230.386 182.4C229.906 181.83 229.246 181.395 228.406 181.095C227.566 180.765 226.576 180.6 225.436 180.6Z" fill="black"/>
<path d="M47.274 246.846H48.75V249.762H47.274V246.846ZM54.726 240.132H56.22V249.708H54.726V240.132ZM43.026 247.35L42.846 246.252C43.89 246.252 45.006 246.246 46.194 246.234C47.394 246.21 48.612 246.174 49.848 246.126C51.084 246.066 52.284 245.97 53.448 245.838L53.538 246.81C52.35 246.978 51.138 247.104 49.902 247.188C48.678 247.26 47.478 247.308 46.302 247.332C45.138 247.344 44.046 247.35 43.026 247.35ZM45.312 250.302H56.22V253.686H46.824V255.522H45.366V252.678H54.744V251.364H45.312V250.302ZM45.366 255.126H56.76V256.224H45.366V255.126ZM51.486 247.872H55.212V248.844H51.486V247.872ZM48.102 240.438C48.906 240.438 49.608 240.534 50.208 240.726C50.808 240.918 51.276 241.2 51.612 241.572C51.948 241.944 52.116 242.382 52.116 242.886C52.116 243.378 51.948 243.81 51.612 244.182C51.276 244.542 50.808 244.824 50.208 245.028C49.608 245.22 48.906 245.316 48.102 245.316C47.298 245.316 46.59 245.22 45.978 245.028C45.378 244.824 44.91 244.542 44.574 244.182C44.25 243.81 44.088 243.378 44.088 242.886C44.088 242.382 44.25 241.944 44.574 241.572C44.91 241.2 45.378 240.918 45.978 240.726C46.59 240.534 47.298 240.438 48.102 240.438ZM48.102 241.464C47.31 241.464 46.674 241.59 46.194 241.842C45.726 242.094 45.492 242.442 45.492 242.886C45.492 243.306 45.726 243.648 46.194 243.912C46.674 244.164 47.31 244.29 48.102 244.29C48.894 244.29 49.524 244.164 49.992 243.912C50.472 243.648 50.712 243.306 50.712 242.886C50.712 242.442 50.472 242.094 49.992 241.842C49.524 241.59 48.894 241.464 48.102 241.464ZM75.9387 240.114H77.3787V256.404H75.9387V240.114ZM73.3467 246.558H76.4787V247.8H73.3467V246.558ZM72.3207 240.456H73.7427V255.576H72.3207V240.456ZM64.1127 242.004H70.3227V252.03H64.1127V242.004ZM68.9187 243.192H65.5167V250.842H68.9187V243.192ZM86.7013 248.232H88.1773V250.68H86.7013V248.232ZM80.1133 247.35H94.7833V248.484H80.1133V247.35ZM86.7013 240.024H88.1773V241.986H86.7013V240.024ZM86.6293 242.13H87.9433V242.382C87.9433 243.03 87.7693 243.6 87.4213 244.092C87.0733 244.584 86.5933 245.004 85.9813 245.352C85.3693 245.7 84.6613 245.982 83.8573 246.198C83.0653 246.402 82.2193 246.54 81.3193 246.612L80.8693 245.478C81.6733 245.43 82.4233 245.328 83.1193 245.172C83.8153 245.004 84.4273 244.788 84.9553 244.524C85.4833 244.26 85.8913 243.948 86.1793 243.588C86.4793 243.228 86.6293 242.826 86.6293 242.382V242.13ZM86.9533 242.13H88.2493V242.382C88.2493 242.826 88.3993 243.228 88.6993 243.588C88.9993 243.948 89.4133 244.26 89.9413 244.524C90.4693 244.788 91.0753 245.004 91.7593 245.172C92.4553 245.328 93.2053 245.43 94.0093 245.478L93.5593 246.612C92.6593 246.54 91.8073 246.402 91.0033 246.198C90.2113 245.982 89.5093 245.7 88.8973 245.352C88.2973 245.004 87.8233 244.584 87.4753 244.092C87.1273 243.6 86.9533 243.03 86.9533 242.382V242.13ZM81.6073 241.536H93.3073V242.688H81.6073V241.536ZM81.8773 249.978H92.9113V253.542H83.3713V255.504H81.9133V252.48H91.4533V251.094H81.8773V249.978ZM81.9133 255.072H93.3973V256.224H81.9133V255.072ZM112.594 240.114H114.088V256.404H112.594V240.114ZM107.824 241.878H109.3C109.3 243.054 109.156 244.188 108.868 245.28C108.592 246.372 108.154 247.41 107.554 248.394C106.954 249.366 106.174 250.272 105.214 251.112C104.254 251.952 103.09 252.702 101.722 253.362L100.93 252.156C102.502 251.4 103.798 250.518 104.818 249.51C105.838 248.502 106.594 247.38 107.086 246.144C107.578 244.896 107.824 243.552 107.824 242.112V241.878ZM101.686 241.878H108.454V243.084H101.686V241.878ZM124.617 243.75H129.549V244.974H124.617V243.75ZM124.617 248.898H129.549V250.122H124.617V248.898ZM121.629 241.374C122.421 241.374 123.123 241.608 123.735 242.076C124.347 242.532 124.821 243.186 125.157 244.038C125.505 244.89 125.679 245.892 125.679 247.044C125.679 248.196 125.505 249.198 125.157 250.05C124.821 250.902 124.347 251.562 123.735 252.03C123.123 252.498 122.421 252.732 121.629 252.732C120.849 252.732 120.147 252.498 119.523 252.03C118.911 251.562 118.431 250.902 118.083 250.05C117.747 249.198 117.579 248.196 117.579 247.044C117.579 245.892 117.747 244.89 118.083 244.038C118.431 243.186 118.911 242.532 119.523 242.076C120.147 241.608 120.849 241.374 121.629 241.374ZM121.629 242.706C121.113 242.706 120.657 242.886 120.261 243.246C119.865 243.594 119.553 244.098 119.325 244.758C119.109 245.406 119.001 246.168 119.001 247.044C119.001 247.92 119.109 248.688 119.325 249.348C119.553 249.996 119.865 250.5 120.261 250.86C120.657 251.22 121.113 251.4 121.629 251.4C122.157 251.4 122.619 251.22 123.015 250.86C123.411 250.5 123.717 249.996 123.933 249.348C124.161 248.688 124.275 247.92 124.275 247.044C124.275 246.168 124.161 245.406 123.933 244.758C123.717 244.098 123.411 243.594 123.015 243.246C122.619 242.886 122.157 242.706 121.629 242.706ZM129.207 240.114H130.683V256.422H129.207V240.114Z" fill="#6C6B72"/>
<path d="M54.042 266.114H55.554V275.798H54.042V266.114ZM55.122 270.344H57.93V271.586H55.122V270.344ZM50.352 276.14C51.444 276.14 52.386 276.266 53.178 276.518C53.982 276.758 54.6 277.112 55.032 277.58C55.476 278.036 55.698 278.594 55.698 279.254C55.698 279.902 55.476 280.46 55.032 280.928C54.6 281.396 53.982 281.75 53.178 281.99C52.386 282.242 51.444 282.368 50.352 282.368C49.248 282.368 48.294 282.242 47.49 281.99C46.686 281.75 46.068 281.396 45.636 280.928C45.204 280.46 44.988 279.902 44.988 279.254C44.988 278.594 45.204 278.036 45.636 277.58C46.068 277.112 46.686 276.758 47.49 276.518C48.294 276.266 49.248 276.14 50.352 276.14ZM50.352 277.346C49.548 277.346 48.852 277.424 48.264 277.58C47.688 277.724 47.238 277.94 46.914 278.228C46.602 278.504 46.446 278.846 46.446 279.254C46.446 279.65 46.602 279.992 46.914 280.28C47.238 280.568 47.688 280.79 48.264 280.946C48.852 281.09 49.548 281.162 50.352 281.162C51.144 281.162 51.834 281.09 52.422 280.946C53.01 280.79 53.46 280.568 53.772 280.28C54.084 279.992 54.24 279.65 54.24 279.254C54.24 278.846 54.084 278.504 53.772 278.228C53.46 277.94 53.01 277.724 52.422 277.58C51.834 277.424 51.144 277.346 50.352 277.346ZM43.62 273.278H44.88C46.02 273.278 47.01 273.266 47.85 273.242C48.69 273.218 49.464 273.164 50.172 273.08C50.88 272.996 51.6 272.882 52.332 272.738L52.494 273.962C51.75 274.106 51.012 274.22 50.28 274.304C49.56 274.376 48.768 274.43 47.904 274.466C47.04 274.49 46.032 274.502 44.88 274.502H43.62V273.278ZM43.62 267.356H50.802V268.58H45.096V274.088H43.62V267.356ZM63.7426 267.518H64.9846V270.434C64.9846 271.37 64.8646 272.282 64.6246 273.17C64.3966 274.046 64.0666 274.868 63.6346 275.636C63.2146 276.392 62.7166 277.064 62.1406 277.652C61.5766 278.228 60.9586 278.684 60.2866 279.02L59.3686 277.778C59.9806 277.502 60.5506 277.106 61.0786 276.59C61.6066 276.074 62.0686 275.492 62.4646 274.844C62.8606 274.184 63.1726 273.476 63.4006 272.72C63.6286 271.964 63.7426 271.202 63.7426 270.434V267.518ZM63.9946 267.518H65.2366V270.434C65.2366 271.178 65.3446 271.91 65.5606 272.63C65.7886 273.35 66.1006 274.034 66.4966 274.682C66.9046 275.318 67.3666 275.882 67.8826 276.374C68.4106 276.854 68.9746 277.232 69.5746 277.508L68.6746 278.696C68.0146 278.384 67.4026 277.946 66.8386 277.382C66.2746 276.818 65.7766 276.17 65.3446 275.438C64.9246 274.706 64.5946 273.914 64.3546 273.062C64.1146 272.21 63.9946 271.334 63.9946 270.434V267.518ZM71.2846 266.114H72.7786V282.422H71.2846V266.114ZM82.0078 274.188V275.885C82.0078 278.39 83.1504 279.813 85.1543 279.813C86.7012 279.813 87.791 278.943 87.9492 277.66H89.5488V277.713C89.373 279.761 87.5449 281.246 85.1455 281.246C82.1045 281.246 80.3818 279.295 80.3818 275.902V274.171C80.3818 270.787 82.1484 268.757 85.1455 268.757C87.5625 268.757 89.3818 270.304 89.5488 272.475V272.527H87.9492C87.791 271.165 86.6748 270.189 85.1543 270.189C83.1768 270.189 82.0078 271.684 82.0078 274.188ZM95.3496 281L91.0518 269.003H92.8975L96.167 279.102H96.2549L99.5156 269.003H101.344L97.0459 281H95.3496ZM107.769 269.003C110.159 269.003 111.662 270.418 111.662 272.598C111.662 274.241 110.766 275.463 109.43 275.946L111.873 281H110.036L107.83 276.254H105V281H103.392V269.003H107.769ZM105 274.865H107.496C109.104 274.865 109.992 274.118 109.992 272.686C109.992 271.235 109.087 270.409 107.558 270.409H105V274.865ZM118.734 267.176H126.33V273.818H118.734V267.176ZM124.872 268.364H120.192V272.63H124.872V268.364ZM129.732 266.114H131.226V275.456H129.732V266.114ZM125.304 277.4H126.582V277.706C126.582 278.294 126.414 278.846 126.078 279.362C125.754 279.866 125.304 280.328 124.728 280.748C124.152 281.156 123.492 281.492 122.748 281.756C122.004 282.032 121.224 282.23 120.408 282.35L119.886 281.198C120.462 281.126 121.014 281.012 121.542 280.856C122.07 280.7 122.562 280.514 123.018 280.298C123.474 280.07 123.87 279.818 124.206 279.542C124.554 279.266 124.824 278.972 125.016 278.66C125.208 278.348 125.304 278.03 125.304 277.706V277.4ZM125.538 277.4H126.834V277.706C126.834 278.09 126.978 278.474 127.266 278.858C127.554 279.242 127.944 279.596 128.436 279.92C128.94 280.232 129.51 280.502 130.146 280.73C130.794 280.958 131.472 281.114 132.18 281.198L131.658 282.35C130.83 282.23 130.05 282.032 129.318 281.756C128.586 281.48 127.932 281.132 127.356 280.712C126.792 280.292 126.348 279.83 126.024 279.326C125.7 278.81 125.538 278.27 125.538 277.706V277.4ZM120.534 276.572H131.604V277.724H120.534V276.572ZM125.322 274.988H126.834V277.094H125.322V274.988ZM150.819 266.132H152.241V275.708H150.819V266.132ZM148.227 270.2H151.305V271.442H148.227V270.2ZM147.255 266.438H148.677V275.618H147.255V266.438ZM141.315 276.482H152.241V282.404H150.765V277.706H141.315V276.482ZM144.105 267.32H145.599C145.599 268.616 145.359 269.804 144.879 270.884C144.411 271.964 143.715 272.924 142.791 273.764C141.867 274.592 140.715 275.3 139.335 275.888L138.597 274.772C139.809 274.28 140.823 273.686 141.639 272.99C142.455 272.294 143.067 271.514 143.475 270.65C143.895 269.786 144.105 268.844 144.105 267.824V267.32ZM139.245 267.32H144.627V268.544H139.245V267.32ZM166.226 266.114H167.72V277.904H166.226V266.114ZM167.252 270.938H170.132V272.18H167.252V270.938ZM155.84 273.782H157.1C158.216 273.782 159.194 273.77 160.034 273.746C160.874 273.722 161.648 273.668 162.356 273.584C163.064 273.5 163.778 273.386 164.498 273.242L164.678 274.466C163.922 274.61 163.178 274.724 162.446 274.808C161.726 274.892 160.94 274.952 160.088 274.988C159.236 275.012 158.24 275.024 157.1 275.024H155.84V273.782ZM155.84 267.518H163.022V268.742H157.316V274.448H155.84V267.518ZM157.586 280.82H168.44V282.044H157.586V280.82ZM157.586 276.716H159.062V281.378H157.586V276.716ZM182.658 266.114H184.152V282.386H182.658V266.114ZM183.756 272.72H186.744V273.962H183.756V272.72ZM178.5 267.86H179.958C179.958 269.408 179.706 270.89 179.202 272.306C178.698 273.71 177.906 275.012 176.826 276.212C175.746 277.4 174.324 278.432 172.56 279.308L171.732 278.156C173.244 277.4 174.498 276.518 175.494 275.51C176.502 274.49 177.252 273.362 177.744 272.126C178.248 270.878 178.5 269.534 178.5 268.094V267.86ZM172.488 267.86H179.256V269.102H172.488V267.86ZM204.141 266.114H205.635V282.404H204.141V266.114ZM199.371 267.878H200.847C200.847 269.054 200.703 270.188 200.415 271.28C200.139 272.372 199.701 273.41 199.101 274.394C198.501 275.366 197.721 276.272 196.761 277.112C195.801 277.952 194.637 278.702 193.269 279.362L192.477 278.156C194.049 277.4 195.345 276.518 196.365 275.51C197.385 274.502 198.141 273.38 198.633 272.144C199.125 270.896 199.371 269.552 199.371 268.112V267.878ZM193.233 267.878H200.001V269.084H193.233V267.878ZM215.228 267.662H216.542V268.148C216.542 268.832 216.374 269.462 216.038 270.038C215.702 270.614 215.24 271.13 214.652 271.586C214.076 272.03 213.41 272.402 212.654 272.702C211.91 272.99 211.118 273.194 210.278 273.314L209.72 272.126C210.296 272.042 210.854 271.916 211.394 271.748C211.946 271.58 212.45 271.376 212.906 271.136C213.362 270.884 213.764 270.602 214.112 270.29C214.46 269.978 214.73 269.642 214.922 269.282C215.126 268.922 215.228 268.544 215.228 268.148V267.662ZM215.84 267.662H217.154V268.148C217.154 268.532 217.25 268.904 217.441 269.264C217.646 269.624 217.922 269.966 218.27 270.29C218.618 270.602 219.02 270.884 219.476 271.136C219.944 271.376 220.448 271.58 220.988 271.748C221.528 271.916 222.086 272.042 222.662 272.126L222.104 273.314C221.276 273.194 220.484 272.99 219.728 272.702C218.972 272.402 218.306 272.03 217.73 271.586C217.154 271.13 216.692 270.614 216.344 270.038C216.008 269.462 215.84 268.832 215.84 268.148V267.662ZM210.188 266.924H222.212V268.13H210.188V266.924ZM208.82 274.484H223.58V275.708H208.82V274.484ZM215.552 275.258H217.046V279.002H215.552V275.258ZM210.692 280.82H221.942V282.044H210.692V280.82ZM210.692 277.418H212.186V281.27H210.692V277.418Z" fill="#6C6B72"/>
<rect x="26" y="16" width="130" height="40" rx="20" fill="#1A69F1"/>
<path d="M51.876 42H49.5029V30.0029H51.876V42ZM54.7588 42V32.6748H57.0176V34.2129H57.1318C57.334 33.5186 57.9844 32.5254 59.6807 32.5254C61.0869 32.5254 61.957 33.2725 62.2383 34.2832H62.3262C62.6514 33.4219 63.5566 32.5254 65.1562 32.5254C67.0459 32.5254 68.1621 33.6592 68.1621 35.4873V42H65.8506V36.1992C65.8506 35.0127 65.2178 34.4326 64.251 34.4326C63.3018 34.4326 62.5723 35.1357 62.5723 36.3311V42H60.3398V36.2432C60.3398 35.0303 59.6455 34.4326 58.7139 34.4326C57.7822 34.4326 57.0703 35.1006 57.0703 36.3135V42H54.7588ZM75.958 42.123C74.6836 42.123 73.7256 41.5605 73.3125 40.5762H73.1982V45.0938H70.8779V32.666H73.1543V34.1514H73.2773C73.6553 33.1494 74.6836 32.5518 75.9932 32.5518C78.1553 32.5518 79.4648 34.1074 79.4648 36.7002V37.9658C79.4648 40.5586 78.1465 42.123 75.958 42.123ZM75.1758 40.2773C76.3975 40.2773 77.1006 39.3545 77.1006 37.7461V36.9375C77.1006 35.3203 76.3975 34.3975 75.1494 34.3975C73.9453 34.3975 73.1982 35.3027 73.1982 36.7881V38.001C73.1982 39.3721 73.9893 40.2773 75.1758 40.2773ZM84.4131 42.1406C82.5938 42.1406 81.3457 41.0508 81.3457 39.293C81.3457 37.623 82.5059 36.5156 84.668 36.5156H86.9443V35.6807C86.9443 34.7402 86.3379 34.292 85.3887 34.292C84.4395 34.292 83.9912 34.7051 83.877 35.2852H81.6885C81.7939 33.7559 82.8838 32.5254 85.4414 32.5254C87.5332 32.5254 89.2383 33.3691 89.2383 35.7334V42H87.0498V40.8135H86.9443C86.5752 41.499 85.793 42.1406 84.4131 42.1406ZM85.1689 40.4355C86.1445 40.4355 86.9443 39.7852 86.9443 38.8799V37.9131H85.1602C84.1318 37.9131 83.6484 38.4316 83.6484 39.1436C83.6484 40.0137 84.3779 40.4355 85.1689 40.4355ZM91.5059 37.8867V36.7178C91.5059 34.1602 93.1143 32.5078 95.6543 32.5078C98.0889 32.5078 99.4688 33.9844 99.5039 35.7598H97.3682C97.2979 35.127 96.8584 34.3623 95.7158 34.3623C94.5029 34.3623 93.835 35.2939 93.835 36.7529V37.8779C93.835 39.3896 94.5381 40.3125 95.7246 40.3125C96.8408 40.3125 97.2979 39.7588 97.4033 38.9941H99.5391C99.5039 40.7695 98.2031 42.167 95.6543 42.167C93.0703 42.167 91.5059 40.5322 91.5059 37.8867ZM102.343 32.7627V30.4424H104.593V32.7627H106.658V34.5381H104.593V39.0645C104.593 39.9961 104.979 40.2773 105.946 40.2773C106.236 40.2773 106.579 40.2598 106.746 40.2422V41.9561C106.562 41.9912 105.911 42.0527 105.384 42.0527C103.063 42.0527 102.29 41.2705 102.29 39.3633V34.5381H100.875V32.7627H102.343ZM115.526 44.6807H107.546V42.9053H115.526V44.6807ZM116.168 36.2695V35.7334C116.168 32.1387 117.891 29.7744 120.756 29.7744C123.612 29.7744 125.291 32.1035 125.291 35.7334V36.2695C125.291 39.8643 123.56 42.2285 120.712 42.2285C117.864 42.2285 116.168 39.8906 116.168 36.2695ZM118.541 35.7422V36.252C118.541 38.7832 119.376 40.2949 120.729 40.2949C122.083 40.2949 122.918 38.7832 122.918 36.252V35.7422C122.918 33.2197 122.092 31.7168 120.729 31.7168C119.367 31.7168 118.541 33.2197 118.541 35.7422ZM129.773 33.5801H127.523V33.4658C127.523 31.6377 128.842 29.7744 131.628 29.7744C134.106 29.7744 135.724 31.2246 135.724 33.1318C135.724 34.7842 134.66 35.8037 133.614 36.9463L130.89 39.9521V40.0664H135.926V42H127.638V40.5234L132.023 35.7949C132.665 35.1094 133.368 34.3447 133.368 33.3516C133.368 32.3672 132.604 31.6729 131.575 31.6729C130.441 31.6729 129.773 32.5078 129.773 33.4482C129.773 33.4922 129.773 33.5537 129.773 33.5801Z" fill="white"/>
</svg>
